<svg xmlns="http://www.w3.org/2000/svg" viewBox="0 0 400 400"><defs><style>.cls-1{fill:none;}.cls-2,.cls-3,.cls-4,.cls-5,.cls-6{fill:#fff;}.cls-2{stroke:#000;}.cls-2,.cls-3,.cls-4,.cls-5,.cls-6,.cls-7{stroke-linejoin:round;stroke-width:5px;}.cls-3{stroke:#04093d;}.cls-4{stroke:#09117a;}.cls-5{stroke:#0d1ab7;}.cls-6,.cls-7{stroke:#1122f4;}.cls-7{fill:#1122f4;}.cls-8{fill:#000001;}</style></defs><g id="Layer_1" data-name="Layer 1"><rect class="cls-1" width="400" height="400"/></g><g id="Layer_3" data-name="Layer 3"><path class="cls-2" d="M231.41,235.35c0,31.21-39.06,56.51-87.25,56.51a129,129,0,0,1-32.86-4.15c-13.26-3.49-24.89-9-34-16a62.21,62.21,0,0,1-10.21-9.77C60.6,254,56.9,245,56.9,235.35c0-31.2,39.07-56.5,87.26-56.5S231.41,204.15,231.41,235.35Z"/><path class="cls-3" d="M231.41,221.41c0,31.21-39.06,56.51-87.25,56.51a129,129,0,0,1-32.86-4.15c-13.26-3.49-24.89-9-34-16A62.21,62.21,0,0,1,67.13,248c-6.53-7.92-10.23-17-10.23-26.57,0-31.2,39.07-56.5,87.26-56.5S231.41,190.21,231.41,221.41Z"/><path class="cls-4" d="M231.41,207.47c0,31.21-39.06,56.51-87.25,56.51a129,129,0,0,1-32.86-4.15c-13.26-3.49-24.89-9-34-16A62.21,62.21,0,0,1,67.13,234c-6.53-7.92-10.23-17-10.23-26.57,0-31.2,39.07-56.5,87.26-56.5S231.41,176.27,231.41,207.47Z"/><path class="cls-5" d="M231.41,193.53c0,31.21-39.06,56.51-87.25,56.51a129,129,0,0,1-32.86-4.15c-13.26-3.49-24.89-9-34-16a62.21,62.21,0,0,1-10.21-9.77c-6.53-7.92-10.23-17-10.23-26.57,0-31.2,39.07-56.5,87.26-56.5S231.41,162.33,231.41,193.53Z"/><path class="cls-6" d="M231.41,179.59c0,31.21-39.06,56.51-87.25,56.51A129,129,0,0,1,111.3,232c-13.26-3.49-24.89-9-34-16a62.21,62.21,0,0,1-10.21-9.77c-6.53-7.92-10.23-17-10.23-26.57,0-31.2,39.07-56.5,87.26-56.5S231.41,148.39,231.41,179.59Z"/><path class="cls-7" d="M231.41,179.59c0,31.21-39.06,56.51-87.25,56.51A129,129,0,0,1,111.3,232c-13.26-3.49-24.89-9-34-16a62.21,62.21,0,0,1-10.21-9.77c-6.53-7.92-10.23-17-10.23-26.57,0-31.2,39.07-56.5,87.26-56.5S231.41,148.39,231.41,179.59Z"/><path class="cls-2" d="M215.27,179.59c0,23.87-31.84,43.21-71.11,43.21s-71.11-19.34-71.11-43.21,31.84-43.21,71.11-43.21S215.27,155.72,215.27,179.59Z"/><path class="cls-8" d="M130.51,150.42l-12.43,7.1-5.77,23.35,15,1.54,3.16-14.67,40.81,32.2L184,192.63Z"/><path class="cls-2" d="M300.19,275.82c-19.3,24.52-65.64,20.23-103.51-9.58a129,129,0,0,1-23.25-23.58c-8.26-10.95-14-22.5-16.77-33.6a62.22,62.22,0,0,1-2-14c-.23-10.26,2.46-19.66,8.4-27.21,19.3-24.51,65.65-20.22,103.51,9.59S319.49,251.3,300.19,275.82Z"/><path class="cls-3" d="M308.82,264.86c-19.31,24.53-65.65,20.24-103.51-9.57a128.72,128.72,0,0,1-23.25-23.59c-8.26-10.94-14-22.49-16.78-33.59a62.3,62.3,0,0,1-2-14c-.23-10.27,2.46-19.66,8.4-27.21,19.3-24.51,65.65-20.22,103.52,9.59S328.12,240.35,308.82,264.86Z"/><path class="cls-4" d="M317.44,253.91c-19.31,24.52-65.65,20.24-103.51-9.57a129,129,0,0,1-23.25-23.59c-8.26-10.94-14-22.49-16.77-33.59a62.3,62.3,0,0,1-2-14c-.23-10.26,2.45-19.65,8.4-27.2,19.3-24.52,65.65-20.22,103.51,9.59S336.74,229.4,317.44,253.91Z"/><path class="cls-5" d="M326.06,243c-19.3,24.52-65.64,20.24-103.51-9.57A129,129,0,0,1,199.3,209.8c-8.26-11-14-22.49-16.77-33.6a62.14,62.14,0,0,1-2-14C180.32,152,183,142.56,189,135c19.3-24.52,65.65-20.23,103.51,9.58S345.36,218.45,326.06,243Z"/><path class="cls-6" d="M334.69,232c-19.31,24.52-65.65,20.23-103.51-9.58a128.67,128.67,0,0,1-23.25-23.58c-8.26-10.95-14-22.5-16.78-33.6a62.22,62.22,0,0,1-2-14c-.23-10.26,2.46-19.66,8.4-27.21,19.3-24.51,65.65-20.22,103.51,9.59S354,207.49,334.69,232Z"/><path class="cls-7" d="M334.69,232c-19.31,24.52-65.65,20.23-103.51-9.58a128.67,128.67,0,0,1-23.25-23.58c-8.26-10.95-14-22.5-16.78-33.6a62.22,62.22,0,0,1-2-14c-.23-10.26,2.46-19.66,8.4-27.21,19.3-24.51,65.65-20.22,103.51,9.59S354,207.49,334.69,232Z"/><path class="cls-2" d="M322,222c-14.76,18.76-51.74,14.26-82.6-10s-43.9-59.18-29.14-77.93,51.75-14.26,82.6,10S336.76,203.27,322,222Z"/><path class="cls-8" d="M273.45,146.67l-14.16-2.11-19,14.78,10.8,10.46,11.55-9.57,12.15,50.54,14.57,2.17Z"/></g></svg>