<svg xmlns="http://www.w3.org/2000/svg" xmlns:xlink="http://www.w3.org/1999/xlink" viewBox="0 0 400 400"><defs><style>.cls-1,.cls-10,.cls-11,.cls-12,.cls-13,.cls-14,.cls-15,.cls-16,.cls-17,.cls-18,.cls-19,.cls-20,.cls-21,.cls-3,.cls-5,.cls-6,.cls-7,.cls-8,.cls-9{fill:#fff;}.cls-2{fill:none;}.cls-21,.cls-3,.cls-5{stroke:#1122f4;}.cls-3{stroke-linecap:round;}.cls-10,.cls-11,.cls-12,.cls-13,.cls-14,.cls-22,.cls-3,.cls-5,.cls-6,.cls-7,.cls-8,.cls-9{stroke-linejoin:round;}.cls-10,.cls-11,.cls-12,.cls-13,.cls-14,.cls-15,.cls-16,.cls-17,.cls-18,.cls-19,.cls-20,.cls-21,.cls-22,.cls-3,.cls-5,.cls-6,.cls-7,.cls-8,.cls-9{stroke-width:5px;}.cls-4{clip-path:url(#clip-path);}.cls-6{stroke:#0f1ed9;}.cls-7{stroke:#0d1abe;}.cls-8{stroke:#0b17a3;}.cls-9{stroke:#091388;}.cls-10{stroke:#080f6c;}.cls-11{stroke:#060b51;}.cls-12{stroke:#040836;}.cls-13{stroke:#02041b;}.cls-14,.cls-22{stroke:#000;}.cls-15{stroke:#020523;stroke-miterlimit:4.86;}.cls-16{stroke:#050a46;stroke-miterlimit:5.71;}.cls-17{stroke:#070f69;stroke-miterlimit:6.57;}.cls-18{stroke:#0a138b;stroke-miterlimit:7.43;}.cls-19{stroke:#0c18ae;stroke-miterlimit:8.29;}.cls-20{stroke:#0f1dd1;stroke-miterlimit:9.14;}.cls-21{stroke-miterlimit:10;}.cls-22{fill:#000001;}</style><clipPath id="clip-path"><path class="cls-1" d="M196.44,137.36,307.82,186a7.51,7.51,0,0,1-1,14.14L239,218.82A85.27,85.27,0,0,1,182.67,215l-.08,0-.14-.06L80.28,170.65a7.32,7.32,0,0,1-4.3-5,7.83,7.83,0,0,1-.23-1.86,2.62,2.62,0,0,1,0-.28,7.39,7.39,0,0,1,5.51-7l78.79-21.71A54.91,54.91,0,0,1,196.44,137.36Z"/></clipPath></defs><g id="Layer_3" data-name="Layer 3"><rect class="cls-2" width="400" height="400"/></g><g id="Layer_2" data-name="Layer 2"><path class="cls-3" d="M312.35,193a7.41,7.41,0,0,1-5.52,7.12L239,218.82A85.27,85.27,0,0,1,182.67,215l-.08,0-.14-.06L80.28,170.65a7.32,7.32,0,0,1-4.3-5"/><path class="cls-1" d="M196.44,137.36,307.82,186a7.51,7.51,0,0,1-1,14.14L239,218.82A85.27,85.27,0,0,1,182.67,215l-.08,0-.14-.06L80.28,170.65a7.32,7.32,0,0,1-4.3-5,7.83,7.83,0,0,1-.23-1.86,2.62,2.62,0,0,1,0-.28,7.39,7.39,0,0,1,5.51-7l78.79-21.71A54.91,54.91,0,0,1,196.44,137.36Z"/><g class="cls-4"><path class="cls-5" d="M75.75,163.78a2.62,2.62,0,0,1,0-.28,7.39,7.39,0,0,1,5.51-7l78.79-21.71a54.91,54.91,0,0,1,36.38,2.55L307.82,186a7.37,7.37,0,0,1,4.53,7"/><path class="cls-6" d="M75.75,175.59a2.62,2.62,0,0,1,0-.28,7.39,7.39,0,0,1,5.51-7l78.79-21.71a54.84,54.84,0,0,1,36.38,2.54l111.38,48.65a7.37,7.37,0,0,1,4.53,7"/><path class="cls-7" d="M75.75,187.39a2.62,2.62,0,0,1,0-.28,7.39,7.39,0,0,1,5.51-7l78.79-21.71A54.91,54.91,0,0,1,196.44,161l111.38,48.64a7.37,7.37,0,0,1,4.53,7"/><path class="cls-8" d="M75.75,199.2a2.62,2.62,0,0,1,0-.28,7.39,7.39,0,0,1,5.51-7l78.79-21.71a54.84,54.84,0,0,1,36.38,2.54l111.38,48.65a7.37,7.37,0,0,1,4.53,7"/><path class="cls-9" d="M75.75,211a2.62,2.62,0,0,1,0-.28,7.39,7.39,0,0,1,5.51-7L160.06,182a54.91,54.91,0,0,1,36.38,2.55l111.38,48.64a7.37,7.37,0,0,1,4.53,7"/><path class="cls-10" d="M75.75,222.81a2.62,2.62,0,0,1,0-.28,7.39,7.39,0,0,1,5.51-7l78.79-21.71a54.84,54.84,0,0,1,36.38,2.54L307.82,245a7.37,7.37,0,0,1,4.53,7"/><path class="cls-11" d="M75.75,234.61a2.62,2.62,0,0,1,0-.28,7.39,7.39,0,0,1,5.51-7l78.79-21.71a54.91,54.91,0,0,1,36.38,2.55l111.38,48.64a7.37,7.37,0,0,1,4.53,7"/><path class="cls-12" d="M75.75,246.42a2.62,2.62,0,0,1,0-.28,7.39,7.39,0,0,1,5.51-7l78.79-21.71A54.84,54.84,0,0,1,196.44,220l111.38,48.65a7.37,7.37,0,0,1,4.53,7"/><path class="cls-13" d="M75.75,258.22a2.62,2.62,0,0,1,0-.28,7.39,7.39,0,0,1,5.51-7l78.79-21.71a54.91,54.91,0,0,1,36.38,2.55l111.38,48.64a7.37,7.37,0,0,1,4.53,7"/><path class="cls-14" d="M75.75,270a2.62,2.62,0,0,1,0-.28,7.39,7.39,0,0,1,5.51-7l78.79-21.71a54.9,54.9,0,0,1,36.38,2.54l111.38,48.65a7.37,7.37,0,0,1,4.53,7"/></g><path class="cls-14" d="M196.44,243.6l111.38,48.65a7.51,7.51,0,0,1-1,14.14L239,325.07a85.27,85.27,0,0,1-56.31-3.86l-.08,0-.14-.06L80.28,276.9a7.32,7.32,0,0,1-4.3-5,7.83,7.83,0,0,1-.23-1.86,2.62,2.62,0,0,1,0-.28,7.39,7.39,0,0,1,5.51-7l78.79-21.71A54.9,54.9,0,0,1,196.44,243.6Z"/><path class="cls-15" d="M196.44,228.43l111.38,48.64a7.51,7.51,0,0,1-1,14.14L239,309.89A85.27,85.27,0,0,1,182.67,306l-.08,0-.14-.06L80.28,261.72a7.32,7.32,0,0,1-4.3-5,7.83,7.83,0,0,1-.23-1.86,2.62,2.62,0,0,1,0-.28,7.39,7.39,0,0,1,5.51-7l78.79-21.71A54.91,54.91,0,0,1,196.44,228.43Z"/><path class="cls-16" d="M196.44,213.25l111.38,48.64a7.51,7.51,0,0,1-1,14.14L239,294.71a85.27,85.27,0,0,1-56.31-3.86l-.08,0-.14-.06L80.28,246.54a7.32,7.32,0,0,1-4.3-5,7.83,7.83,0,0,1-.23-1.86,2.62,2.62,0,0,1,0-.28,7.39,7.39,0,0,1,5.51-7l78.79-21.71A54.91,54.91,0,0,1,196.44,213.25Z"/><path class="cls-17" d="M196.44,198.07l111.38,48.64a7.51,7.51,0,0,1-1,14.14L239,279.53a85.27,85.27,0,0,1-56.31-3.86l-.08,0-.14-.06L80.28,231.36a7.32,7.32,0,0,1-4.3-5,7.83,7.83,0,0,1-.23-1.86,2.62,2.62,0,0,1,0-.28,7.39,7.39,0,0,1,5.51-7l78.79-21.71A54.91,54.91,0,0,1,196.44,198.07Z"/><path class="cls-18" d="M196.44,182.89l111.38,48.64a7.51,7.51,0,0,1-1,14.14L239,264.35a85.27,85.27,0,0,1-56.31-3.86l-.08,0-.14-.06L80.28,216.18a7.32,7.32,0,0,1-4.3-5,7.83,7.83,0,0,1-.23-1.86,2.62,2.62,0,0,1,0-.28,7.39,7.39,0,0,1,5.51-7l78.79-21.71A54.91,54.91,0,0,1,196.44,182.89Z"/><path class="cls-19" d="M196.44,167.71l111.38,48.65a7.51,7.51,0,0,1-1,14.14L239,249.18a85.27,85.27,0,0,1-56.31-3.86l-.08,0-.14-.06L80.28,201a7.32,7.32,0,0,1-4.3-5,7.83,7.83,0,0,1-.23-1.86,2.62,2.62,0,0,1,0-.28,7.39,7.39,0,0,1,5.51-7l78.79-21.71A54.9,54.9,0,0,1,196.44,167.71Z"/><path class="cls-20" d="M196.44,152.54l111.38,48.64a7.51,7.51,0,0,1-1,14.14L239,234a85.27,85.27,0,0,1-56.31-3.86l-.08,0-.14-.06L80.28,185.83a7.32,7.32,0,0,1-4.3-5,7.83,7.83,0,0,1-.23-1.86,2.62,2.62,0,0,1,0-.28,7.39,7.39,0,0,1,5.51-7L160.06,150A54.91,54.91,0,0,1,196.44,152.54Z"/><path class="cls-21" d="M196.44,137.36,307.82,186a7.51,7.51,0,0,1-1,14.14L239,218.82A85.27,85.27,0,0,1,182.67,215l-.08,0-.14-.06L80.28,170.65a7.32,7.32,0,0,1-4.3-5,7.83,7.83,0,0,1-.23-1.86,2.62,2.62,0,0,1,0-.28,7.39,7.39,0,0,1,5.51-7l78.79-21.71A54.91,54.91,0,0,1,196.44,137.36Z"/><path class="cls-22" d="M323.73,161.41l-3,13.48a7.42,7.42,0,0,1-6.92,5.78l-70.28,3.72a85.29,85.29,0,0,1-54.17-15.83l-.08-.05-.12-.09L98.88,103.35a7.31,7.31,0,0,1-3.13-5.81,7.8,7.8,0,0,1,.17-1.87A2.13,2.13,0,0,1,96,95.4l2.8-12.75a8.22,8.22,0,0,0-.08,1.41,7.33,7.33,0,0,0,3.12,5.81l0,0,90.3,65.05.13.09.07.05a85.3,85.3,0,0,0,54.18,15.83l70.27-3.72a6.74,6.74,0,0,0,1-.13h0A7.43,7.43,0,0,0,323.73,161.41Z"/><path class="cls-5" d="M323.73,161.41a7.43,7.43,0,0,1-5.88,5.66h0a6.74,6.74,0,0,1-1,.13l-70.27,3.72a85.3,85.3,0,0,1-54.18-15.83l-.07-.05-.13-.09-90.3-65,0,0a7.33,7.33,0,0,1-3.12-5.81,8.22,8.22,0,0,1,.08-1.41l.16-.73a7.39,7.39,0,0,1,6.88-5.64L187.44,72a54.81,54.81,0,0,1,35,10.28l98.38,71.36A7.36,7.36,0,0,1,323.73,161.41Z"/></g></svg>