<svg xmlns="http://www.w3.org/2000/svg" xmlns:xlink="http://www.w3.org/1999/xlink" viewBox="0 0 400 400"><defs><style>.cls-1,.cls-10,.cls-11,.cls-12,.cls-3,.cls-4,.cls-5,.cls-6,.cls-7,.cls-8,.cls-9{fill:#fff;}.cls-13,.cls-2{fill:none;}.cls-15,.cls-3{stroke:#000;}.cls-10,.cls-11,.cls-12,.cls-13,.cls-15,.cls-3,.cls-4,.cls-5,.cls-6,.cls-7,.cls-8,.cls-9{stroke-linejoin:round;stroke-width:5px;}.cls-4{stroke:#02041b;}.cls-5{stroke:#040836;}.cls-6{stroke:#060b51;}.cls-7{stroke:#080f6c;}.cls-8{stroke:#091388;}.cls-9{stroke:#0b17a3;}.cls-10{stroke:#0d1abe;}.cls-11{stroke:#0f1ed9;}.cls-12{stroke:#1122f4;}.cls-13{stroke:url(#linear-gradient);}.cls-14{clip-path:url(#clip-path);}.cls-15{fill:#000001;}</style><linearGradient id="linear-gradient" x1="194.05" y1="150.89" x2="194.05" y2="288.87" gradientUnits="userSpaceOnUse"><stop offset="0" stop-color="#1122f4"/><stop offset="1"/></linearGradient><clipPath id="clip-path"><path class="cls-1" d="M196.44,127l111.38,48.64a7.51,7.51,0,0,1-1,14.14L239,208.43a85.27,85.27,0,0,1-56.31-3.86l-.08,0-.14-.06L80.28,160.26a7.32,7.32,0,0,1-4.3-5,7.83,7.83,0,0,1-.23-1.86,2.62,2.62,0,0,1,0-.28,7.39,7.39,0,0,1,5.51-7l78.79-21.71A54.91,54.91,0,0,1,196.44,127Z"/></clipPath></defs><g id="Layer_3" data-name="Layer 3"><rect class="cls-2" width="400" height="400"/></g><g id="Layer_2" data-name="Layer 2"><path class="cls-3" d="M312.35,288.87a7.41,7.41,0,0,1-5.52,7.12L239,314.67a85.27,85.27,0,0,1-56.31-3.86l-.08,0-.14-.06L80.28,266.5a7.32,7.32,0,0,1-4.3-5,7.83,7.83,0,0,1-.23-1.86"/><path class="cls-4" d="M312.35,277.07a7.41,7.41,0,0,1-5.52,7.12L239,302.87A85.27,85.27,0,0,1,182.67,299l-.08,0-.14-.06L80.28,254.7a7.32,7.32,0,0,1-4.3-5,7.83,7.83,0,0,1-.23-1.86"/><path class="cls-5" d="M312.35,265.26a7.41,7.41,0,0,1-5.52,7.12L239,291.06a85.27,85.27,0,0,1-56.31-3.86l-.08,0-.14-.06L80.28,242.89a7.32,7.32,0,0,1-4.3-5,7.83,7.83,0,0,1-.23-1.86"/><path class="cls-6" d="M312.35,253.46a7.41,7.41,0,0,1-5.52,7.12L239,279.26a85.27,85.27,0,0,1-56.31-3.86l-.08,0-.14-.06L80.28,231.09a7.32,7.32,0,0,1-4.3-5,7.83,7.83,0,0,1-.23-1.86"/><path class="cls-7" d="M312.35,241.65a7.41,7.41,0,0,1-5.52,7.12L239,267.45a85.27,85.27,0,0,1-56.31-3.86l-.08,0-.14-.06L80.28,219.28a7.32,7.32,0,0,1-4.3-5,7.83,7.83,0,0,1-.23-1.86"/><path class="cls-8" d="M312.35,229.85a7.41,7.41,0,0,1-5.52,7.12L239,255.65a85.27,85.27,0,0,1-56.31-3.86l-.08,0-.14-.06L80.28,207.48a7.32,7.32,0,0,1-4.3-5,7.83,7.83,0,0,1-.23-1.86"/><path class="cls-9" d="M312.35,218a7.41,7.41,0,0,1-5.52,7.12L239,243.84A85.27,85.27,0,0,1,182.67,240l-.08,0-.14-.06L80.28,195.67a7.32,7.32,0,0,1-4.3-5,7.83,7.83,0,0,1-.23-1.86"/><path class="cls-10" d="M312.35,206.24a7.41,7.41,0,0,1-5.52,7.12L239,232a85.27,85.27,0,0,1-56.31-3.86l-.08,0-.14-.06L80.28,183.87a7.32,7.32,0,0,1-4.3-5,7.83,7.83,0,0,1-.23-1.86"/><path class="cls-11" d="M312.35,194.43a7.41,7.41,0,0,1-5.52,7.12L239,220.23a85.27,85.27,0,0,1-56.31-3.86l-.08,0-.14-.06L80.28,172.06a7.32,7.32,0,0,1-4.3-5,7.83,7.83,0,0,1-.23-1.86"/><path class="cls-12" d="M312.35,182.63a7.41,7.41,0,0,1-5.52,7.12L239,208.43a85.27,85.27,0,0,1-56.31-3.86l-.08,0-.14-.06L80.28,160.26a7.32,7.32,0,0,1-4.3-5,7.83,7.83,0,0,1-.23-1.86"/><polyline class="cls-13" points="75.75 259.63 75.75 153.39 312.35 182.63 312.35 288.87"/><path class="cls-1" d="M196.44,127l111.38,48.64a7.51,7.51,0,0,1-1,14.14L239,208.43a85.27,85.27,0,0,1-56.31-3.86l-.08,0-.14-.06L80.28,160.26a7.32,7.32,0,0,1-4.3-5,7.83,7.83,0,0,1-.23-1.86,2.62,2.62,0,0,1,0-.28,7.39,7.39,0,0,1,5.51-7l78.79-21.71A54.91,54.91,0,0,1,196.44,127Z"/><g class="cls-14"><path class="cls-12" d="M75.75,153.39a2.62,2.62,0,0,1,0-.28,7.39,7.39,0,0,1,5.51-7l78.79-21.71A54.91,54.91,0,0,1,196.44,127l111.38,48.64a7.37,7.37,0,0,1,4.53,7"/><path class="cls-11" d="M75.75,165.19a2.62,2.62,0,0,1,0-.28,7.39,7.39,0,0,1,5.51-7l78.79-21.71a54.91,54.91,0,0,1,36.38,2.55l111.38,48.64a7.37,7.37,0,0,1,4.53,7"/><path class="cls-10" d="M75.75,177a2.62,2.62,0,0,1,0-.28,7.39,7.39,0,0,1,5.51-7L160.06,148a54.91,54.91,0,0,1,36.38,2.55l111.38,48.64a7.37,7.37,0,0,1,4.53,7"/><path class="cls-9" d="M75.75,188.8a2.62,2.62,0,0,1,0-.28,7.39,7.39,0,0,1,5.51-7l78.79-21.71a54.91,54.91,0,0,1,36.38,2.55L307.82,211a7.37,7.37,0,0,1,4.53,7"/><path class="cls-8" d="M75.75,200.61a2.62,2.62,0,0,1,0-.28,7.39,7.39,0,0,1,5.51-7l78.79-21.71a54.91,54.91,0,0,1,36.38,2.55l111.38,48.64a7.37,7.37,0,0,1,4.53,7"/><path class="cls-7" d="M75.75,212.41a2.62,2.62,0,0,1,0-.28,7.39,7.39,0,0,1,5.51-7l78.79-21.71A54.91,54.91,0,0,1,196.44,186l111.38,48.64a7.37,7.37,0,0,1,4.53,7"/><path class="cls-6" d="M75.75,224.22a2.62,2.62,0,0,1,0-.28,7.39,7.39,0,0,1,5.51-7l78.79-21.71a54.91,54.91,0,0,1,36.38,2.55l111.38,48.64a7.37,7.37,0,0,1,4.53,7"/><path class="cls-5" d="M75.75,236a2.62,2.62,0,0,1,0-.28,7.39,7.39,0,0,1,5.51-7l78.79-21.71a54.91,54.91,0,0,1,36.38,2.55l111.38,48.64a7.37,7.37,0,0,1,4.53,7"/><path class="cls-4" d="M75.75,247.83a2.62,2.62,0,0,1,0-.28,7.39,7.39,0,0,1,5.51-7l78.79-21.71a54.91,54.91,0,0,1,36.38,2.55l111.38,48.64a7.37,7.37,0,0,1,4.53,7"/><path class="cls-3" d="M75.75,259.63a2.62,2.62,0,0,1,0-.28,7.39,7.39,0,0,1,5.51-7l78.79-21.71a54.91,54.91,0,0,1,36.38,2.55l111.38,48.64a7.37,7.37,0,0,1,4.53,7"/></g><path class="cls-12" d="M196.44,127l111.38,48.64a7.51,7.51,0,0,1-1,14.14L239,208.43a85.27,85.27,0,0,1-56.31-3.86l-.08,0-.14-.06L80.28,160.26a7.32,7.32,0,0,1-4.3-5,7.83,7.83,0,0,1-.23-1.86,2.62,2.62,0,0,1,0-.28,7.39,7.39,0,0,1,5.51-7l78.79-21.71A54.91,54.91,0,0,1,196.44,127Z"/><path class="cls-15" d="M312.35,142.44v13.8a7.41,7.41,0,0,1-5.52,7.12L239,182a85.27,85.27,0,0,1-56.31-3.86l-.08,0-.14-.06L80.28,133.87a7.32,7.32,0,0,1-4.3-5,7.83,7.83,0,0,1-.23-1.86,2.62,2.62,0,0,1,0-.28v-13a8.37,8.37,0,0,0,.22,1.39,7.32,7.32,0,0,0,4.3,5h0l102.14,44.21.14.06.08,0A85.27,85.27,0,0,0,239,168.24l67.85-18.68a7.54,7.54,0,0,0,1-.34h0A7.42,7.42,0,0,0,312.35,142.44Z"/><path class="cls-12" d="M312.35,142.44a7.42,7.42,0,0,1-4.53,6.78h0a7.54,7.54,0,0,1-1,.34L239,168.24a85.27,85.27,0,0,1-56.31-3.86l-.08,0-.14-.06L80.31,120.08h0a7.32,7.32,0,0,1-4.3-5,8.37,8.37,0,0,1-.22-1.39v-.75a7.39,7.39,0,0,1,5.51-7l78.79-21.71a54.91,54.91,0,0,1,36.38,2.55l111.38,48.64A7.37,7.37,0,0,1,312.35,142.44Z"/></g></svg>