<svg id="Layer_3" data-name="Layer 3" xmlns="http://www.w3.org/2000/svg" viewBox="0 0 1812.15 945.27"><defs><style>.cls-1{fill:#fff;stroke:#1122f3;stroke-miterlimit:10;stroke-width:2px;}</style></defs><path class="cls-1" d="M1768.61,550.47a171.2,171.2,0,0,1-63.07,12.39q-38.3,0-67-15.21a145.72,145.72,0,0,1-47.86-40A173.79,173.79,0,0,1,1562,451.93a210,210,0,0,1-9.58-62.51,222.33,222.33,0,0,1,9-62.5A172.23,172.23,0,0,1,1589,271.17a142,142,0,0,1,46.74-40Q1663.86,216,1701,216q32.65,0,64.2,15.2t47.29,37.73l92.35-81.09q-32.67-39.4-88.41-61.94A305.46,305.46,0,0,0,1701,103.37q-59.7,0-112.06,20.27a279.18,279.18,0,0,0-91.78,57.43q-39.43,37.17-62.5,90.1t-23.09,118.25q0,51,13.14,93.61a334,334,0,0,0-75.86-8.51q-60.81,0-114.87,20.27-7,2.64-13.77,5.55c0-1.67.06-3.36.06-5.06q0-39.4-15.77-67a147.31,147.31,0,0,0-41.11-46.18,224,224,0,0,0-56.31-29.84,492.47,492.47,0,0,0-61.37-18q-57.45-13.51-87.29-26.47t-29.83-44.49q0-31.5,27-45t59.69-13.51A139.54,139.54,0,0,1,1084,222.18q31.53,17.48,49.56,41.1l87.84-77.7q-32.67-41.65-88.41-61.94a331.89,331.89,0,0,0-114.3-20.27,306.64,306.64,0,0,0-78.84,10.14q-38.29,10.13-68.69,31a159.83,159.83,0,0,0-49,53.5q-18.59,32.67-18.59,77.71,0,38.29,13.52,64.19a130.09,130.09,0,0,0,36,43.35,192.27,192.27,0,0,0,51.24,28.16,444.37,444.37,0,0,0,59.13,17.46q61.9,14.66,92.9,29.28t31,48.43q0,18-7.89,30.4a58.17,58.17,0,0,1-20.83,19.71,101.67,101.67,0,0,1-28.16,10.7,137.53,137.53,0,0,1-29.84,3.38c-29.29,0-55.1-8.1-80-19.15-30.25-13.45-71.9-50.31-120.16-73.61a265.7,265.7,0,0,0-117.84-27,306.94,306.94,0,0,0-78.83,10.13q-4.44,1.19-8.76,2.5V330.86a317.22,317.22,0,0,0-10.7-81.09,189.53,189.53,0,0,0-37.73-73.2q-27-32.65-73.77-52.93T354.14,103.37A363,363,0,0,0,232,124.76,304.91,304.91,0,0,0,125.53,189l69.82,82.21q25.89-25.89,65.32-43.92a195.69,195.69,0,0,1,82.21-18q50.69,0,87.28,24.22t36.6,74.89v13.51q-63.08,0-128.95,6.19T217.87,353.39q-54,19.16-88.4,55.18T95.12,505.42q0,47.3,19.7,79.4t49.56,51.8a202.38,202.38,0,0,0,65.32,28.15,294,294,0,0,0,68.13,8.45q57.45,0,102.49-23.09T465.63,591h4.66a188.38,188.38,0,0,0-2.65,32.29q0,38.3,13.51,64.18a130.12,130.12,0,0,0,36,43.36A192.55,192.55,0,0,0,568.43,759a444.81,444.81,0,0,0,59.13,17.46q61.92,14.65,92.91,29.28t31,48.43q0,18-7.89,30.4a58.17,58.17,0,0,1-20.83,19.71A101.73,101.73,0,0,1,694.57,915a137.62,137.62,0,0,1-29.85,3.38q-43.92,0-80-19.15T526.2,850.79l-89,83.34Q476.64,977,536.34,1000a337.87,337.87,0,0,0,122.75,23.09,374.41,374.41,0,0,0,85-9.58q41.1-9.56,72.08-31a157.71,157.71,0,0,0,49.55-55.75q18.59-34.34,18.58-83.9,0-39.4-15.77-67a147.35,147.35,0,0,0-41.1-46.17,224.21,224.21,0,0,0-56.31-29.84,494.89,494.89,0,0,0-61.38-18q-57.43-13.5-87.28-26.46t-29.84-44.49q0-31.5,27-45t59.68-13.51c24.78,0,58.36,2.14,84.26,19.6,36.64,24.69,63.61,45.86,101.14,66.44S953,675.48,995.07,675.48a377.57,377.57,0,0,0,72.93-7q-13.05,41.58-13,89.84,0,64.18,23.09,117.12t62.51,90.66q39.4,37.74,93.47,59.13t114.87,21.39q60.81,0,114.87-21.39t93.48-59.13q39.4-37.73,62.5-90.66t23.08-117.12q0-48.93-13.42-91a342.48,342.48,0,0,0,75,8.13q60.81,0,113.18-19.71T1903.76,600l-84.47-85.59Q1800.12,538.07,1768.61,550.47ZM466.76,432.21q0,64.2-36,101.36T324.86,570.74a172.11,172.11,0,0,1-33.79-3.38,98.16,98.16,0,0,1-30.4-11.26,64.61,64.61,0,0,1-22-20.83q-8.46-12.94-8.45-32.1,0-30.42,20.27-47.87t50.68-27a298.43,298.43,0,0,1,66.45-12.39q36-2.81,68.69-2.82h30.41Zm1029.1,389.18a173.76,173.76,0,0,1-28.72,56.31,150.25,150.25,0,0,1-48.43,40.55Q1389.42,934,1348.89,934t-69.82-15.76a150,150,0,0,1-48.43-40.55,173,173,0,0,1-28.72-56.31,216.09,216.09,0,0,1-9.57-63.06,210.74,210.74,0,0,1,9.57-62.51,174.19,174.19,0,0,1,28.72-55.74,144.28,144.28,0,0,1,48.43-40q29.27-15.2,69.82-15.2t69.82,15.2a144.47,144.47,0,0,1,48.43,40,175,175,0,0,1,28.72,55.74,211.07,211.07,0,0,1,9.57,62.51A216.42,216.42,0,0,1,1495.86,821.39Z" transform="translate(-94.12 -102.37)"/></svg>