<svg xmlns="http://www.w3.org/2000/svg" xmlns:xlink="http://www.w3.org/1999/xlink" viewBox="0 0 432.59 400"><defs><style>.cls-1,.cls-10{fill:none;}.cls-11,.cls-2,.cls-3,.cls-4,.cls-5,.cls-6,.cls-7{fill:#fff;}.cls-10,.cls-11,.cls-12,.cls-2{stroke:#000;}.cls-10,.cls-2,.cls-3,.cls-4,.cls-5,.cls-6,.cls-7{stroke-miterlimit:10;}.cls-11,.cls-12,.cls-2,.cls-3,.cls-4,.cls-5,.cls-6,.cls-7{stroke-width:5px;}.cls-3{stroke:#030731;}.cls-4{stroke:#070e62;}.cls-5{stroke:#0a1492;}.cls-6{stroke:#0e1bc3;}.cls-7{stroke:#1122f4;}.cls-12,.cls-8{fill:#1122f4;}.cls-9{clip-path:url(#clip-path);}.cls-10{stroke-width:2px;}.cls-11,.cls-12{stroke-linejoin:round;}</style><clipPath id="clip-path"><path class="cls-1" d="M355.56,167.83l-14.73,16.36a15.16,15.16,0,0,1-9.88,4.95l-60.27,5.53a15.19,15.19,0,0,0-9.69,4.74l-80.62,86.22a15.15,15.15,0,0,1-21.91.24L53.71,178.7a15.17,15.17,0,0,1,.8-21.95L95,120.94a15.18,15.18,0,0,1,11.23-3.76l64,5a15.17,15.17,0,0,0,8.41-1.78L213,101.78a15.14,15.14,0,0,1,12.14-1l124,42.58A15.16,15.16,0,0,1,355.56,167.83Z"/></clipPath></defs><g id="Layer_9" data-name="Layer 9"><rect class="cls-1" width="400" height="400"/></g><g id="Layer_1" data-name="Layer 1"><path class="cls-2" d="M364.41,225.6,349.68,242a15.16,15.16,0,0,1-9.88,4.95l-60.27,5.53a15.19,15.19,0,0,0-9.69,4.74L189.22,343.4a15.15,15.15,0,0,1-21.91.24L62.56,236.47a15.17,15.17,0,0,1,.8-21.95l40.49-35.81A15.18,15.18,0,0,1,115.08,175l64,5a15.16,15.16,0,0,0,8.4-1.78l34.41-18.63a15.14,15.14,0,0,1,12.14-1l124.05,42.58A15.16,15.16,0,0,1,364.41,225.6Z"/><path class="cls-3" d="M362.64,214l-14.73,16.37a15.2,15.2,0,0,1-9.88,5l-60.27,5.53a15.19,15.19,0,0,0-9.69,4.74l-80.62,86.21a15.16,15.16,0,0,1-21.91.25L60.79,224.92a15.17,15.17,0,0,1,.8-21.95l40.49-35.82a15.17,15.17,0,0,1,11.23-3.75l64,5a15.16,15.16,0,0,0,8.4-1.78L220.1,148a15.18,15.18,0,0,1,12.14-1l124.05,42.59A15.15,15.15,0,0,1,362.64,214Z"/><path class="cls-4" d="M360.87,202.49l-14.73,16.36a15.17,15.17,0,0,1-9.88,5L276,229.34a15.15,15.15,0,0,0-9.69,4.74l-80.62,86.21a15.15,15.15,0,0,1-21.91.24L59,213.36a15.16,15.16,0,0,1,.8-21.94l40.49-35.82a15.18,15.18,0,0,1,11.23-3.76l64,5a15.18,15.18,0,0,0,8.41-1.79l34.41-18.63a15.14,15.14,0,0,1,12.14-1l124,42.58A15.16,15.16,0,0,1,360.87,202.49Z"/><path class="cls-5" d="M359.1,190.94,344.37,207.3a15.2,15.2,0,0,1-9.88,4.95l-60.27,5.53a15.19,15.19,0,0,0-9.69,4.74l-80.62,86.22A15.15,15.15,0,0,1,162,309L57.25,201.81a15.17,15.17,0,0,1,.8-21.95l40.49-35.81a15.14,15.14,0,0,1,11.23-3.76l64,5a15.17,15.17,0,0,0,8.41-1.78l34.41-18.64a15.18,15.18,0,0,1,12.14-1l124.05,42.58A15.16,15.16,0,0,1,359.1,190.94Z"/><path class="cls-6" d="M357.33,179.38,342.6,195.74a15.17,15.17,0,0,1-9.88,5l-60.27,5.53a15.15,15.15,0,0,0-9.69,4.74l-80.62,86.21a15.15,15.15,0,0,1-21.91.24L55.48,190.26a15.17,15.17,0,0,1,.8-21.95l40.49-35.82A15.18,15.18,0,0,1,108,128.73l64,5a15.17,15.17,0,0,0,8.41-1.78l34.41-18.64a15.18,15.18,0,0,1,12.14-1L351,154.9A15.16,15.16,0,0,1,357.33,179.38Z"/><path class="cls-7" d="M355.56,167.83l-14.73,16.36a15.16,15.16,0,0,1-9.88,4.95l-60.27,5.53a15.19,15.19,0,0,0-9.69,4.74l-80.62,86.22a15.15,15.15,0,0,1-21.91.24L53.71,178.7a15.17,15.17,0,0,1,.8-21.95L95,120.94a15.18,15.18,0,0,1,11.23-3.76l64,5a15.17,15.17,0,0,0,8.41-1.78L213,101.78a15.14,15.14,0,0,1,12.14-1l124,42.58A15.16,15.16,0,0,1,355.56,167.83Z"/><path class="cls-8" d="M108.55,231.24s22.87-10.39,28.35-11.38,10.74-3.71,20.5,0,19.44,14.4,29.47,18.91,26.41,8,26.41,8L178.52,284a12.63,12.63,0,0,1-18.25.2Z"/></g><g id="Layer_2_copy" data-name="Layer 2 copy"><path class="cls-8" d="M162.56,242.57,116.78,165.4a4.13,4.13,0,0,1,3.21-6.15l68.91-8.73a54.53,54.53,0,0,1,10.06,0l72.55,9.15a2.14,2.14,0,0,0,2.56-1.58l7.8-28.53,3.23.73-7.42,32.46a3.52,3.52,0,0,1-3.56,2.54l-67.36-7.55-4.89.18-61.57,9.91A2,2,0,0,0,139,171l45.1,54.67Z"/><g class="cls-9"><path class="cls-10" d="M124.73,125.18c-6.29-3.59-2.52-7.17,1.54-5.7s16.82-.9,15.67,0c-.88.7,5.54,4.9,4.11,7.8s-8.75,6.21-14.9,7.71S131,128.77,124.73,125.18Z"/><path class="cls-10" d="M365.07,99.67c11.67,16.35,27.26,28.39,47.85,31.5,36.28,5.48,11.5,36.72-5.89,47.35-3.15,1.93-7.77,2-11.85,1.84-24.15-.85-47.83-3.79-71.59,1.94-9.11,2.2-17.8,5.87-26.21,7-12,1.64-31.74,30.37-42.71,39-13.59,10.66-30.57,19.28-48.23,17.23-19.61-2.27-26.77-13.23-41.91-22.87-15.72-10-34.15-1.43-49.86,5.21-20.08,8.48-91.42,26-92.59-11.77-.74-23.77,43.92-27.34,40.13-56.38-2.22-17,22.64-59,39-62.95,9.08-2.18,24.46-3.22,29-9.27,1.6-2.14,11.53-4.34,24.76-6,21.61-2.73,33.2-21.38,60.34-15.08,12.79,3,21.63,8.15,28,19.33,3.76,6.6,3.94,13.93,13.12,15.14,15.3,2,23.92-19.4,37.58-23.37C316.41,71,351.43,80.57,365.07,99.67Z"/><path class="cls-10" d="M281.43,151.78c-1.71,3.85-24.12,1-34,.35-12.78-.8-25.52-2.4-38.15-4.31-3.17-.49-7.26-1.73-10.46-1.71-26.39.22-59,42.67-87.24,42.47-20.15-.14-7.31-30.89,5-36.62,18.33-8.57,52.74-18.15,72.47-11.13a55,55,0,0,0,10.17,2.22c21.81,3.15,44.25-2.26,65.25-.56C274.09,143.26,281.9,150.72,281.43,151.78Z"/><path class="cls-10" d="M161.76,157.33c-11.86,8.63-28.25,23.58-42.5,23-7.23-.27-2.2-13.73,6.87-20.11,8.14-5.72,22.77,1.93,28.94-7.32C161.52,143.26,176.57,146.56,161.76,157.33Z"/><path class="cls-10" d="M273.69,150.6c-2.12,1.71-5.12-.23-14.54.14s-16.2-3.64-11.61-3.83,10.29,1.1,12.24.51,2.38-2.37,7.89-1.9S275.81,148.89,273.69,150.6Z"/><path class="cls-10" d="M151.26,122.51c2.55,5.58-14.68,18.8-23.11,16.66-7-1.78-1.9-10.12-10-13-5.34-1.92-27.43,2.92-20.5-11.09,4.9-9.89,16.29-11.86,24.43-5.2C129.57,116,148.64,116.76,151.26,122.51Z"/><path class="cls-10" d="M326.8,97.89c-16.93-5.74-19.35,21.75-32.68,25.77-15.21,4.6-35.35-6.09-50.16-11.71a507,507,0,0,0-62.44-19.51c-2.18-.53-4.4-1-6.54-1.44-22.41-4.2-32.5-4.53-51.71,3.91-12.72,5.59,25,22.26,28.67,24,4.62,2.15,5.73,3.52,6.71,5,1.42,2.17,2.68,4.38,13.42,10.77,5.3,3.16,12.92,4.2,20.85,5.4,17.71,2.69,36.47,2.21,54.15-.07,13-1.68,39.89,5.12,41.63,12.39,1.79,7.48-53.69,2.55-63.41,1.32-1.65-.2-3.39-.27-4.64-.56-16.54-3.78-28.74,19.2-14.6,29.81,15.82,11.87,43.71-3.5,54.85-6.93,1.82-.57,5.67.13,8.51.12,25.78-.1,51.73-2.76,77.31-1.77,11.52.45,24.88,1.8,34.91.41,6.24-.87,48-28.59,23.11-34.36-14.31-3.31-33.38-7.5-43.95-18.2C351,112.29,340.56,102.56,326.8,97.89Zm-95.15,26c-13.14,3-12.15,10.43-24.31,11.63-13.87,1.36-30.59-6.92-41.15-15.63-7.3-6-17.49-7.53-25.48-12.36-15.5-9.37,11.59-7.45,15.69-6.24,9.9,2.91,23.06-.3,33.33,1.5,11.43,2,27.39,5.21,37.41,12C232.56,118.51,238.94,122.17,231.65,123.85Z"/><path class="cls-10" d="M342.45,114c8.41,9.28,21.31,15.53,32.66,21.67,8.39,4.54.69,5.68,3.53,14,2.46,7.21,16.61,20.9-4.47,22.08l-.79.07c-15.85,1.33-54.46.85-60.75-11.76-1.78-3.58-9-9.12-22.89-14.26-4.83-1.79-32.81-10.86-28.3-14.43,1.51-1.2,6.39-1.36,11.29-1.35,13.2,0,27.46-4.85,39.95-8.37,15.53-4.36,5.05-22.48,12.73-20.67S336.19,107.08,342.45,114Z"/><path class="cls-10" d="M353.22,127.31c10,3.41,8,13.83,4.82,21.46-1.77,4.27-5.9,10.28-14.11,10.53-12.83.39-26.64-2.32-37.66-9.1-12.1-7.45-27-9.54-39.07-17.07,1.68-1.54,4.06-1.3,6.26-.82,1.4.3,3.82.12,5.83.39C301.84,135.8,330.56,119.61,353.22,127.31Z"/><path class="cls-10" d="M345.83,130.43c6.73,2.17,4.5,9.83,1.75,15.21a16.39,16.39,0,0,1-15.47,8.8c-7.65-.43-15.5-2.53-20.88-5.89-7.89-4.92-18.82-6.7-26.59-11.79,1.32-.07,2.7-.2,4-.22a5.15,5.15,0,0,1,.54,0C306.72,138.2,328.6,124.88,345.83,130.43Z"/><path class="cls-10" d="M339.15,133.17c3.43.79,1,5.86-1.48,9.22-3.51,4.75-17.1,8.55-22.35,4.56-2.35-1.79-10.89-3.9-13.91-5.14-1.75-.72-1.14-.67,2.49-1.05C314.12,139.69,329.06,130.85,339.15,133.17Z"/><path class="cls-10" d="M311.6,169.72c-9.14-.66-22.29-3.36-28.47.52-1.48.92-7,4.15-17.65,4.06a78.17,78.17,0,0,1-9.08-.65c-16.55-2.14-25.09,6.2-20.53-4.1s-5.42-9.18-8.87-11.18c-1.37-.79-.75-1.41,1.49-1.52,3.44-.16,10.75.94,21,4.15,12.3,3.85,22.71-.89,34.56-.93,10.54,0,13.63,3.73,24,4.9S329.65,171,311.6,169.72Z"/><path class="cls-10" d="M231.65,123.85c-13.14,3-12.15,10.43-24.31,11.63-13.87,1.36-30.59-6.92-41.15-15.63-7.3-6-17.49-7.53-25.48-12.36-15.5-9.37,11.59-7.45,15.69-6.24,9.9,2.91,23.06-.3,33.33,1.5,11.43,2,27.39,5.21,37.41,12C232.56,118.51,238.94,122.17,231.65,123.85Z"/><path class="cls-10" d="M222.39,121.61c-11.77,1.66-13.41,6.27-23.48,6.72-9.62.43-20.86-3.3-28.07-9.67-4.65-4.11-17.05-5.55-25.44-10.7-7-4.28-.69-7.4,13.24-4.5,11.58,2.41,24.05,2,35.64,3.66,8.06,1.19,28.21,4.78,32.07,13.48C225,120.94,223.59,121.44,222.39,121.61Z"/><path class="cls-10" d="M206.61,116.17c-9.77,1-12.2,3.68-20.71,4s-17.63-3.73-20.37-6.59-9.52-3.46-15.09-6.87c-4.64-2.83-.75-3.28,9.92-1.26s12-.82,27.7,1.65c7.42,1.17,17.15,2.66,22.3,8.31C209.11,115.67,207.76,116.05,206.61,116.17Z"/><path class="cls-10" d="M321.7,179.32c-10,3.37-21.26,6.61-30.76,7-10.82.42-26.51,19.88-34.48,27.31-36.43,34-62.89,7.2-95.75-12.34-15.33-9.13-33.61,10.85-47.72,15.65-8.95,3-52.73,6.71-41.38-16.3,7-14.19,0-32,1.69-46.85,2-17,28.49-25.79,35.91-13.4,7.92,13.22-30.77,38.94-27.54,58.07,3.86,22.89,56.48-13,63.73-17.75,5.76-3.77,25.46-18.74,33.23-12.13,5.25,4.47,3.38,17.22,3.87,22.81,2.36,26.81,63.8,2.68,76.2-3,8.52-3.92,15.87-7,21.15-7.28,10-.47,19.53-4,29.18-5.12C319,174.81,329.14,176.81,321.7,179.32Z"/><path class="cls-10" d="M162.17,189.84c-10.79,4.69-11.31-5.52-5.59-11.67s10.7-4.22,16.74-2.41S173,185.17,162.17,189.84Z"/></g></g><g id="Layer_3_copy" data-name="Layer 3 copy"><path class="cls-11" d="M159.94,116.5c0,25.13-28.52,46.24-32.66,46.24S94.63,141.63,94.63,116.5a32.66,32.66,0,1,1,65.31,0Z"/><path class="cls-11" d="M191.14,223.75c0,14.47-16.42,26.63-18.8,26.63s-18.81-12.16-18.81-26.63a18.81,18.81,0,1,1,37.61,0Z"/><path class="cls-12" d="M300.9,104.29c0,14.47-16.42,26.63-18.8,26.63s-18.81-12.16-18.81-26.63a18.81,18.81,0,1,1,37.61,0Z"/></g></svg>