<svg xmlns="http://www.w3.org/2000/svg" xmlns:xlink="http://www.w3.org/1999/xlink" viewBox="0 0 435.31 400"><defs><style>.cls-1,.cls-9{fill:none;}.cls-10,.cls-2,.cls-3,.cls-4,.cls-5,.cls-6{fill:#fff;}.cls-10,.cls-11,.cls-2,.cls-9{stroke:#000;}.cls-2,.cls-3,.cls-4,.cls-5,.cls-6,.cls-9{stroke-miterlimit:10;}.cls-10,.cls-11,.cls-2,.cls-3,.cls-4,.cls-5,.cls-6{stroke-width:5px;}.cls-3{stroke:#04093d;}.cls-4{stroke:#09117a;}.cls-5{stroke:#0d1ab7;}.cls-6{stroke:#1122f4;}.cls-11,.cls-7{fill:#1122f4;}.cls-8{clip-path:url(#clip-path);}.cls-9{stroke-width:2px;}.cls-10,.cls-11{stroke-linejoin:round;}</style><clipPath id="clip-path"><path class="cls-1" d="M358.28,155.21l-14.73,16.36a15.18,15.18,0,0,1-9.88,5l-60.26,5.53a15.17,15.17,0,0,0-9.69,4.74L183.09,273a15.17,15.17,0,0,1-21.91.24L56.44,166.08a15.16,15.16,0,0,1,.8-22l40.49-35.81A15.14,15.14,0,0,1,109,104.56l64,5a15.14,15.14,0,0,0,8.4-1.78l34.41-18.64a15.14,15.14,0,0,1,12.14-1l124.06,42.58A15.16,15.16,0,0,1,358.28,155.21Z"/></clipPath></defs><g id="Layer_9" data-name="Layer 9"><rect class="cls-1" width="400" height="400"/></g><g id="Layer_1" data-name="Layer 1"><path class="cls-2" d="M358.28,227.81l-14.73,16.36a15.13,15.13,0,0,1-9.88,5l-60.26,5.53a15.17,15.17,0,0,0-9.69,4.74l-80.63,86.22a15.15,15.15,0,0,1-21.91.24L56.44,238.68a15.16,15.16,0,0,1,.8-22l40.49-35.81A15.18,15.18,0,0,1,109,177.16l64,5a15.14,15.14,0,0,0,8.4-1.78l34.41-18.63a15.14,15.14,0,0,1,12.14-1l124.06,42.58A15.16,15.16,0,0,1,358.28,227.81Z"/><path class="cls-3" d="M358.28,209.66,343.55,226a15.18,15.18,0,0,1-9.88,4.95l-60.26,5.53a15.17,15.17,0,0,0-9.69,4.74l-80.63,86.22a15.15,15.15,0,0,1-21.91.24L56.44,220.53a15.16,15.16,0,0,1,.8-21.95l40.49-35.81A15.18,15.18,0,0,1,109,159l64,5a15.14,15.14,0,0,0,8.4-1.78l34.41-18.64a15.18,15.18,0,0,1,12.14-1l124.06,42.58A15.16,15.16,0,0,1,358.28,209.66Z"/><path class="cls-4" d="M358.28,191.51l-14.73,16.36a15.18,15.18,0,0,1-9.88,4.95l-60.26,5.53a15.17,15.17,0,0,0-9.69,4.74l-80.63,86.22a15.15,15.15,0,0,1-21.91.24L56.44,202.38a15.16,15.16,0,0,1,.8-21.95l40.49-35.81A15.14,15.14,0,0,1,109,140.86l64,5a15.14,15.14,0,0,0,8.4-1.78l34.41-18.64a15.18,15.18,0,0,1,12.14-1L351.94,167A15.16,15.16,0,0,1,358.28,191.51Z"/><path class="cls-5" d="M358.28,173.36l-14.73,16.36a15.18,15.18,0,0,1-9.88,4.95l-60.26,5.53a15.17,15.17,0,0,0-9.69,4.74l-80.63,86.22a15.15,15.15,0,0,1-21.91.24L56.44,184.23a15.16,15.16,0,0,1,.8-21.95l40.49-35.81A15.14,15.14,0,0,1,109,122.71l64,5a15.14,15.14,0,0,0,8.4-1.78l34.41-18.64a15.18,15.18,0,0,1,12.14-1l124.06,42.58A15.16,15.16,0,0,1,358.28,173.36Z"/><path class="cls-6" d="M358.28,155.21l-14.73,16.36a15.18,15.18,0,0,1-9.88,5l-60.26,5.53a15.17,15.17,0,0,0-9.69,4.74L183.09,273a15.17,15.17,0,0,1-21.91.24L56.44,166.08a15.16,15.16,0,0,1,.8-22l40.49-35.81A15.14,15.14,0,0,1,109,104.56l64,5a15.14,15.14,0,0,0,8.4-1.78l34.41-18.64a15.14,15.14,0,0,1,12.14-1l124.06,42.58A15.16,15.16,0,0,1,358.28,155.21Z"/><path class="cls-7" d="M111.28,218.61s22.86-10.39,28.35-11.37,10.73-3.71,20.49,0,19.45,14.39,29.47,18.91,26.41,8,26.41,8l-34.76,37.17a12.62,12.62,0,0,1-18.24.2Z"/></g><g id="Layer_2_copy" data-name="Layer 2 copy"><path class="cls-7" d="M165.29,230l-45.78-77.18a4.12,4.12,0,0,1,3.21-6.14l68.91-8.74a55.42,55.42,0,0,1,10.06,0l72.54,9.15a2.16,2.16,0,0,0,2.57-1.58l7.8-28.53,3.23.73-7.42,32.46a3.5,3.5,0,0,1-3.56,2.53l-67.36-7.54-4.89.18L143,155.21a2,2,0,0,0-1.29,3.18l45.09,54.67Z"/><g class="cls-8"><path class="cls-9" d="M127.46,112.55c-6.29-3.59-2.52-7.16,1.53-5.7s16.83-.9,15.67,0c-.87.7,5.55,4.89,4.12,7.8s-8.76,6.21-14.91,7.71S133.76,116.15,127.46,112.55Z"/><path class="cls-9" d="M367.79,87.05c11.68,16.35,27.26,28.38,47.86,31.5,36.28,5.48,11.5,36.72-5.9,47.35-3.14,1.92-7.76,2-11.85,1.83-24.14-.84-47.82-3.78-71.59,2-9.11,2.2-17.79,5.87-26.2,7-12,1.64-31.74,30.37-42.71,39-13.59,10.67-30.57,19.28-48.24,17.24-19.61-2.27-26.76-13.23-41.9-22.87-15.72-10-34.15-1.43-49.87,5.21-20.07,8.48-91.41,26-92.59-11.78-.74-23.76,43.93-27.33,40.14-56.37-2.22-17,22.64-59,39-63,9.08-2.18,24.45-3.22,29-9.28,1.6-2.13,11.54-4.33,24.77-6,21.61-2.72,33.2-21.38,60.33-15.07,12.8,3,21.64,8.14,28,19.33,3.77,6.59,3.95,13.93,13.13,15.14,15.29,2,23.92-19.4,37.57-23.37C319.14,58.41,354.16,67.94,367.79,87.05Z"/><path class="cls-9" d="M284.16,139.16c-1.71,3.85-24.12,1-34,.34-12.78-.79-25.52-2.39-38.14-4.31-3.18-.48-7.26-1.73-10.46-1.7-26.4.22-59,42.66-87.24,42.47-20.15-.14-7.31-30.89,5-36.63,18.34-8.57,52.74-18.14,72.48-11.12A55,55,0,0,0,202,130.43c21.81,3.14,44.25-2.26,65.24-.57C276.82,130.64,284.63,138.1,284.16,139.16Z"/><path class="cls-9" d="M164.49,144.71c-11.86,8.63-28.25,23.57-42.5,23-7.23-.27-2.2-13.73,6.87-20.11,8.14-5.72,22.77,1.93,28.94-7.32C164.25,130.64,179.3,133.94,164.49,144.71Z"/><path class="cls-9" d="M276.42,138c-2.12,1.72-5.12-.23-14.54.15s-16.2-3.64-11.62-3.84,10.3,1.11,12.25.52,2.37-2.37,7.89-1.9S278.54,136.26,276.42,138Z"/><path class="cls-9" d="M154,109.88c2.55,5.58-14.68,18.81-23.11,16.67-7-1.78-1.9-10.12-10-13-5.33-1.92-27.42,2.92-20.49-11.09,4.89-9.89,16.29-11.87,24.43-5.2C132.29,103.33,151.37,104.14,154,109.88Z"/><path class="cls-9" d="M329.53,85.27C312.6,79.52,310.18,107,296.85,111c-15.22,4.59-35.35-6.09-50.17-11.72a508.06,508.06,0,0,0-62.43-19.51c-2.19-.52-4.41-1-6.54-1.43-22.41-4.2-32.5-4.53-51.71,3.91-12.72,5.59,25,22.26,28.67,23.95,4.62,2.15,5.72,3.52,6.71,5,1.42,2.17,2.68,4.39,13.42,10.78,5.3,3.16,12.92,4.2,20.85,5.4,17.71,2.69,36.47,2.21,54.14-.07,13-1.68,39.89,5.11,41.63,12.39,1.8,7.47-53.69,2.55-63.4,1.32-1.65-.21-3.4-.27-4.65-.56-16.53-3.78-28.73,19.2-14.59,29.81,15.82,11.87,43.71-3.5,54.84-6.94,1.83-.56,5.68.14,8.51.13,25.79-.11,51.73-2.77,77.32-1.77,11.51.45,24.87,1.8,34.9.41,6.25-.87,48-28.59,23.11-34.36-14.3-3.31-33.38-7.5-43.94-18.21C353.71,99.66,343.29,89.94,329.53,85.27Zm-95.15,26c-13.14,3-12.15,10.43-24.31,11.62-13.87,1.36-30.59-6.91-41.16-15.62-7.29-6-17.49-7.54-25.48-12.36-15.5-9.37,11.6-7.45,15.7-6.25,9.9,2.91,23.06-.29,33.33,1.5,11.43,2,27.39,5.22,37.4,12.06C235.28,105.89,241.67,109.55,234.38,111.23Z"/><path class="cls-9" d="M345.18,101.37c8.41,9.28,21.31,15.54,32.66,21.68,8.39,4.54.69,5.67,3.53,14,2.46,7.22,16.6,20.91-4.47,22.08l-.79.07c-15.85,1.34-54.46.86-60.75-11.75-1.79-3.58-9-9.12-22.89-14.26-4.84-1.79-32.81-10.87-28.31-14.43,1.51-1.2,6.4-1.36,11.29-1.35,13.21,0,27.47-4.86,40-8.37,15.52-4.36,5-22.49,12.72-20.67S338.91,94.46,345.18,101.37Z"/><path class="cls-9" d="M355.94,114.69c10,3.41,8,13.82,4.83,21.46-1.78,4.26-5.9,10.27-14.11,10.52-12.83.39-26.64-2.31-37.66-9.09-12.1-7.45-27-9.55-39.07-17.07,1.67-1.54,4.06-1.3,6.26-.82,1.39.3,3.81.11,5.82.39C304.57,123.18,333.28,107,355.94,114.69Z"/><path class="cls-9" d="M348.55,117.81c6.74,2.16,4.5,9.83,1.76,15.2a16.36,16.36,0,0,1-15.47,8.8c-7.66-.42-15.51-2.52-20.88-5.88-7.9-4.93-18.82-6.7-26.6-11.79,1.33-.07,2.71-.2,4-.22h.53C309.44,125.58,331.33,112.26,348.55,117.81Z"/><path class="cls-9" d="M341.88,120.55c3.43.79,1,5.86-1.48,9.22-3.51,4.74-17.1,8.54-22.35,4.56-2.35-1.79-10.9-3.9-13.91-5.15-1.76-.72-1.15-.66,2.49-1C316.85,127.07,331.78,118.23,341.88,120.55Z"/><path class="cls-9" d="M314.33,157.1c-9.15-.66-22.29-3.36-28.47.51-1.48.93-7,4.16-17.65,4.06a75.72,75.72,0,0,1-9.08-.64c-16.55-2.14-25.1,6.19-20.53-4.1s-5.42-9.18-8.87-11.18c-1.37-.8-.76-1.41,1.48-1.52,3.45-.17,10.76.94,21,4.14,12.3,3.86,22.71-.88,34.56-.93,10.54,0,13.62,3.74,24,4.91S332.37,158.4,314.33,157.1Z"/><path class="cls-9" d="M234.38,111.23c-13.14,3-12.15,10.43-24.31,11.62-13.87,1.36-30.59-6.91-41.16-15.62-7.29-6-17.49-7.54-25.48-12.36-15.5-9.37,11.6-7.45,15.7-6.25,9.9,2.91,23.06-.29,33.33,1.5,11.43,2,27.39,5.22,37.4,12.06C235.28,105.89,241.67,109.55,234.38,111.23Z"/><path class="cls-9" d="M225.11,109c-11.76,1.66-13.4,6.27-23.47,6.72-9.62.43-20.86-3.3-28.08-9.67-4.64-4.11-17-5.56-25.43-10.7-7-4.28-.69-7.4,13.24-4.5,11.58,2.41,24,2,35.64,3.66,8.06,1.18,28.21,4.78,32.07,13.48A40.64,40.64,0,0,1,225.11,109Z"/><path class="cls-9" d="M209.34,103.55c-9.77,1-12.21,3.67-20.71,4S171,103.82,168.25,101s-9.51-3.47-15.09-6.87c-4.63-2.84-.74-3.28,9.93-1.26s12-.83,27.7,1.65c7.42,1.17,17.14,2.66,22.3,8.31C211.84,103,210.48,103.43,209.34,103.55Z"/><path class="cls-9" d="M324.42,166.69c-10,3.38-21.25,6.61-30.75,7-10.83.43-26.51,19.89-34.48,27.32-36.43,34-62.89,7.2-95.76-12.35-15.33-9.12-33.61,10.86-47.71,15.65C106.77,207.34,63,211,74.34,188c7-14.19,0-32,1.69-46.85,2-17,28.49-25.79,35.91-13.4,7.92,13.22-30.77,38.94-27.54,58.07,3.85,22.89,56.48-13,63.73-17.76,5.76-3.77,25.46-18.74,33.23-12.12,5.25,4.47,3.38,17.22,3.87,22.81,2.36,26.8,63.8,2.68,76.2-3,8.52-3.92,15.87-7,21.14-7.29,10-.46,19.54-4,29.18-5.11C321.67,162.18,331.87,164.19,324.42,166.69Z"/><path class="cls-9" d="M164.9,177.22c-10.79,4.68-11.31-5.52-5.59-11.67s10.7-4.22,16.74-2.41S175.67,172.55,164.9,177.22Z"/></g></g><g id="Layer_3_copy" data-name="Layer 3 copy"><path class="cls-10" d="M162.67,103.87c0,25.13-28.52,46.25-32.66,46.25S97.35,129,97.35,103.87a32.66,32.66,0,0,1,65.32,0Z"/><path class="cls-10" d="M193.87,211.12c0,14.48-16.42,26.63-18.81,26.63s-18.8-12.15-18.8-26.63a18.81,18.81,0,0,1,37.61,0Z"/><path class="cls-11" d="M303.63,91.67c0,14.47-16.42,26.63-18.81,26.63S266,106.14,266,91.67a18.81,18.81,0,1,1,37.61,0Z"/></g></svg>