<svg xmlns="http://www.w3.org/2000/svg" xmlns:xlink="http://www.w3.org/1999/xlink" viewBox="0 0 451.86 400"><defs><style>.cls-1,.cls-4,.cls-6,.cls-7,.cls-8,.cls-9{fill:none;}.cls-2{fill:#fff;}.cls-10,.cls-2,.cls-4,.cls-6{stroke:#000;}.cls-10,.cls-2,.cls-7,.cls-8,.cls-9{stroke-linejoin:round;stroke-width:5px;}.cls-10,.cls-3{fill:#1122f4;}.cls-4,.cls-7,.cls-8,.cls-9{stroke-linecap:square;}.cls-4,.cls-6{stroke-miterlimit:10;stroke-width:2px;}.cls-5{clip-path:url(#clip-path);}.cls-7,.cls-8,.cls-9{stroke:#1122f4;}.cls-8{stroke-dasharray:24.1 24.1;}.cls-9{stroke-dasharray:16.77 16.77;}</style><clipPath id="clip-path"><polygon class="cls-1" points="390.17 175.22 356.13 213.03 284.21 219.63 188.81 321.64 61.85 191.74 119.09 141.11 193.94 146.98 238.14 123.04 390.17 175.22"/></clipPath></defs><g id="Layer_9" data-name="Layer 9"><rect class="cls-1" width="400" height="400"/></g><g id="Layer_1" data-name="Layer 1"><polygon class="cls-2" points="390.17 175.22 356.13 213.03 284.21 219.63 188.81 321.64 61.85 191.74 119.09 141.11 193.94 146.98 238.14 123.04 390.17 175.22"/><path class="cls-3" d="M127.83,255.67s22.86-10.39,28.34-11.38,10.74-3.7,20.5,0,27.41,17.79,29.47,18.91,14.13,7.56,21,7,5.39,1,5.39,1L188.77,318Z"/><line class="cls-4" x1="119.09" y1="141.11" x2="286.03" y2="218.27"/><line class="cls-4" x1="190.67" y1="147.88" x2="356.13" y2="213.03"/></g><g id="Layer_2_copy" data-name="Layer 2 copy"><g class="cls-5"><path class="cls-6" d="M144,149.61c-6.29-3.59-2.52-7.17,1.54-5.7s16.83-.9,15.67,0c-.87.7,5.55,4.9,4.11,7.8s-8.75,6.21-14.9,7.71S150.31,153.21,144,149.61Z"/><path class="cls-6" d="M384.34,124.1c11.68,16.35,27.26,28.39,47.85,31.5,36.29,5.49,11.51,36.72-5.89,47.36-3.14,1.92-7.76,2-11.85,1.83-24.14-.85-47.82-3.79-71.59,2-9.11,2.19-17.79,5.87-26.2,7-12,1.64-31.74,30.37-42.71,39C260.36,263.41,243.38,272,225.71,270c-19.61-2.27-26.76-13.23-41.9-22.87-15.72-10-34.16-1.43-49.87,5.21-20.08,8.48-91.42,26-92.59-11.77-.74-23.77,43.93-27.33,40.13-56.37-2.22-17,22.64-59,39-63,9.08-2.18,24.45-3.21,29-9.27,1.6-2.13,11.54-4.33,24.77-6,21.61-2.73,33.19-21.38,60.33-15.08,12.8,3,21.64,8.15,28,19.34,3.77,6.59,3.95,13.92,13.13,15.13,15.29,2,23.92-19.39,37.57-23.36C335.69,95.47,370.7,105,384.34,124.1Z"/><path class="cls-6" d="M300.71,176.22c-1.72,3.85-24.13.95-34,.34-12.78-.8-25.52-2.39-38.14-4.31-3.18-.48-7.26-1.73-10.47-1.71-26.39.22-59,42.67-87.24,42.47-20.14-.14-7.31-30.89,5-36.62,18.34-8.57,52.74-18.15,72.48-11.12a55.88,55.88,0,0,0,10.16,2.22c21.81,3.14,44.26-2.26,65.25-.57C293.37,167.69,301.18,175.16,300.71,176.22Z"/><path class="cls-6" d="M181,181.77c-11.87,8.62-28.25,23.57-42.5,23-7.23-.27-2.2-13.73,6.87-20.1,8.14-5.72,22.77,1.93,28.93-7.32C180.8,167.69,195.84,171,181,181.77Z"/><path class="cls-6" d="M293,175c-2.12,1.71-5.12-.23-14.55.14s-16.19-3.64-11.61-3.83,10.3,1.1,12.24.51,2.38-2.36,7.9-1.89S295.08,173.32,293,175Z"/><path class="cls-6" d="M170.54,146.94c2.55,5.58-14.68,18.8-23.11,16.66-7-1.78-1.9-10.12-10-13-5.33-1.91-27.42,2.93-20.49-11.09,4.89-9.89,16.28-11.86,24.43-5.19C148.84,140.39,167.91,141.2,170.54,146.94Z"/><path class="cls-6" d="M346.08,122.33c-16.94-5.75-19.35,21.74-32.69,25.77-15.21,4.59-35.34-6.1-50.16-11.72a508.06,508.06,0,0,0-62.43-19.51c-2.19-.52-4.41-1-6.55-1.44-22.41-4.19-32.5-4.52-51.7,3.92-12.72,5.59,25,22.25,28.66,23.94,4.62,2.16,5.73,3.53,6.72,5,1.41,2.17,2.68,4.38,13.42,10.78,5.3,3.16,12.92,4.19,20.85,5.4,17.7,2.68,36.47,2.2,54.14-.07,13-1.68,39.89,5.11,41.63,12.39,1.79,7.47-53.69,2.55-63.4,1.32-1.65-.21-3.4-.28-4.65-.56-16.53-3.79-28.74,19.19-14.6,29.8,15.83,11.87,43.71-3.5,54.85-6.93,1.82-.56,5.68.13,8.51.12,25.78-.1,51.73-2.76,77.31-1.76,11.52.45,24.88,1.8,34.91.4,6.25-.87,48-28.58,23.11-34.35-14.3-3.31-33.38-7.51-43.94-18.21C370.26,136.72,359.84,127,346.08,122.33Zm-95.16,26c-13.14,3-12.14,10.43-24.31,11.62-13.86,1.36-30.58-6.92-41.15-15.63-7.3-6-17.49-7.53-25.48-12.36-15.5-9.36,11.6-7.45,15.7-6.24,9.89,2.91,23.06-.3,33.33,1.5,11.43,2,27.38,5.21,37.4,12.06C251.83,142.94,258.22,146.6,250.92,148.29Z"/><path class="cls-6" d="M361.73,138.43c8.41,9.28,21.31,15.53,32.66,21.67,8.39,4.54.69,5.68,3.52,14,2.47,7.21,16.61,20.91-4.46,22.08l-.79.07c-15.85,1.33-54.46.85-60.75-11.76-1.79-3.57-9-9.12-22.89-14.26-4.84-1.79-32.81-10.86-28.31-14.43,1.51-1.19,6.4-1.35,11.29-1.34,13.21,0,27.46-4.86,40-8.37,15.52-4.37,5-22.49,12.72-20.67S355.46,131.52,361.73,138.43Z"/><path class="cls-6" d="M372.49,151.75c10,3.4,8,13.82,4.83,21.45-1.78,4.27-5.9,10.28-14.11,10.53-12.83.39-26.64-2.31-37.66-9.09-12.1-7.45-27-9.55-39.07-17.08,1.67-1.53,4.06-1.3,6.25-.82,1.4.31,3.82.12,5.83.4C321.11,160.23,349.83,144.05,372.49,151.75Z"/><path class="cls-6" d="M365.1,154.86c6.74,2.17,4.5,9.83,1.76,15.21a16.36,16.36,0,0,1-15.47,8.8c-7.66-.43-15.51-2.53-20.88-5.88-7.9-4.93-18.82-6.7-26.6-11.8,1.33-.07,2.71-.2,4-.22a4.88,4.88,0,0,1,.53,0C326,162.64,347.88,149.32,365.1,154.86Z"/><path class="cls-6" d="M358.42,157.61c3.43.79,1,5.85-1.48,9.22-3.5,4.74-17.09,8.54-22.34,4.55-2.35-1.78-10.9-3.9-13.92-5.14-1.75-.72-1.14-.67,2.49-1.05C333.4,164.12,348.33,155.28,358.42,157.61Z"/><path class="cls-6" d="M330.87,194.16c-9.14-.66-22.28-3.36-28.47.51-1.47.92-7,4.15-17.64,4.06a75.88,75.88,0,0,1-9.08-.65c-16.55-2.13-25.1,6.2-20.53-4.1s-5.43-9.18-8.88-11.18c-1.37-.79-.75-1.4,1.49-1.51,3.45-.17,10.76.93,21,4.14,12.29,3.86,22.71-.89,34.56-.93,10.54,0,13.62,3.74,24,4.91S348.92,195.46,330.87,194.16Z"/><path class="cls-6" d="M250.92,148.29c-13.14,3-12.14,10.43-24.31,11.62-13.86,1.36-30.58-6.92-41.15-15.63-7.3-6-17.49-7.53-25.48-12.36-15.5-9.36,11.6-7.45,15.7-6.24,9.89,2.91,23.06-.3,33.33,1.5,11.43,2,27.38,5.21,37.4,12.06C251.83,142.94,258.22,146.6,250.92,148.29Z"/><path class="cls-6" d="M241.66,146.05c-11.76,1.66-13.41,6.26-23.48,6.71-9.61.43-20.85-3.29-28.07-9.67-4.64-4.11-17-5.55-25.43-10.7-7-4.27-.69-7.4,13.24-4.49,11.58,2.41,24.05,1.95,35.64,3.65,8.06,1.19,28.21,4.78,32.07,13.49C244.31,145.37,242.87,145.88,241.66,146.05Z"/><path class="cls-6" d="M225.88,140.6c-9.77,1-12.2,3.68-20.7,4s-17.63-3.73-20.38-6.59-9.51-3.46-15.09-6.87c-4.63-2.83-.75-3.28,9.93-1.25s12-.83,27.7,1.64c7.42,1.17,17.14,2.66,22.3,8.31C228.39,140.1,227,140.48,225.88,140.6Z"/><path class="cls-6" d="M341,203.75c-10,3.37-21.25,6.61-30.75,7-10.83.42-26.51,19.88-34.48,27.32-36.43,34-62.89,7.2-95.76-12.35-15.33-9.12-33.61,10.86-47.71,15.65-9,3-52.73,6.71-41.38-16.29,7-14.2,0-32,1.69-46.85,2-17,28.49-25.8,35.91-13.4,7.91,13.22-30.77,38.93-27.55,58.06,3.86,22.9,56.48-13,63.73-17.75,5.77-3.77,25.47-18.74,33.23-12.12,5.25,4.47,3.39,17.22,3.88,22.8,2.35,26.81,63.79,2.69,76.19-3,8.53-3.91,15.88-7,21.15-7.28,10-.46,19.54-4,29.18-5.12C338.22,199.24,348.41,201.24,341,203.75Z"/><path class="cls-6" d="M181.45,214.28c-10.79,4.68-11.31-5.53-5.59-11.68s10.7-4.21,16.73-2.41S192.22,209.6,181.45,214.28Z"/></g></g><g id="Layer_3_copy" data-name="Layer 3 copy"><polyline class="cls-7" points="297.28 170.69 292.52 187.13 280.55 186.29"/><polyline class="cls-8" points="256.51 184.61 202.68 180.86 172.77 186.16"/><polyline class="cls-7" points="160.91 188.25 149.09 190.35 154.35 201.13"/><line class="cls-9" x1="161.69" y1="216.21" x2="172.7" y2="238.82"/><line class="cls-7" x1="176.38" y1="246.36" x2="181.63" y2="257.15"/><path class="cls-2" d="M208.93,246.69c0,13.33-14.58,22.5-17.32,31.22-2.74-8.72-17.32-17.89-17.32-31.22a17.32,17.32,0,1,1,34.64,0Z"/><path class="cls-10" d="M317.7,127.23c0,13.33-14.57,22.5-17.31,31.22-2.75-8.72-17.32-17.89-17.32-31.22a17.32,17.32,0,1,1,34.63,0Z"/><path class="cls-2" d="M181.75,128.54c0,25.13-27.49,42.42-32.66,58.86-5.17-16.44-32.65-33.73-32.65-58.86a32.66,32.66,0,1,1,65.31,0Z"/></g></svg>