<svg xmlns="http://www.w3.org/2000/svg" xmlns:xlink="http://www.w3.org/1999/xlink" viewBox="0 0 400 400"><defs><style>.cls-1,.cls-4,.cls-6{fill:none;}.cls-2{fill:#fff;}.cls-2,.cls-4,.cls-6,.cls-7{stroke:#000;}.cls-2,.cls-7{stroke-linejoin:round;stroke-width:5px;}.cls-3,.cls-7{fill:#1122f4;}.cls-4{stroke-linecap:square;}.cls-4,.cls-6{stroke-miterlimit:10;stroke-width:2px;}.cls-5{clip-path:url(#clip-path);}</style><clipPath id="clip-path"><polygon class="cls-1" points="369.88 176.36 335.85 214.17 263.93 220.77 168.53 322.78 41.57 192.88 98.81 142.25 173.66 148.11 217.86 124.18 369.88 176.36"/></clipPath></defs><g id="Layer_9" data-name="Layer 9"><rect class="cls-1" width="400" height="400"/></g><g id="Layer_1" data-name="Layer 1"><polygon class="cls-2" points="369.88 176.36 335.85 214.17 263.93 220.77 168.53 322.78 41.57 192.88 98.81 142.25 173.66 148.11 217.86 124.18 369.88 176.36"/><path class="cls-3" d="M107.55,256.81s22.86-10.39,28.34-11.38,10.74-3.71,20.5,0,27.4,17.78,29.47,18.91,14.12,7.55,21,7,5.39,1,5.39,1l-43.78,46.81Z"/><line class="cls-4" x1="98.81" y1="142.25" x2="265.74" y2="219.4"/><line class="cls-4" x1="170.39" y1="149.01" x2="335.85" y2="214.16"/></g><g id="Layer_2_copy" data-name="Layer 2 copy"><path class="cls-3" d="M161.55,268.14,115.77,191a4.13,4.13,0,0,1,3.22-6.15l58.84-5.42a54.53,54.53,0,0,1,10.06,0l78.21,7.33a2.49,2.49,0,0,0,2.57-1.57l24.37-62-18.77,64.9a3.5,3.5,0,0,1-3.56,2.53l-75-4-4.9.18-51.5,6.6a2,2,0,0,0-1.3,3.18l45.1,54.67Z"/><g class="cls-5"><path class="cls-6" d="M123.72,150.74c-6.29-3.58-2.52-7.16,1.54-5.69s16.82-.91,15.67,0c-.87.7,5.54,4.9,4.11,7.8s-8.75,6.21-14.9,7.71S130,154.34,123.72,150.74Z"/><path class="cls-6" d="M364.06,125.24c11.67,16.35,27.26,28.38,47.85,31.5,36.29,5.48,11.51,36.72-5.89,47.35-3.14,1.92-7.76,2-11.85,1.83-24.14-.84-47.83-3.78-71.59,2-9.11,2.2-17.8,5.87-26.2,7-12,1.64-31.75,30.37-42.71,39-13.59,10.66-30.57,19.28-48.24,17.23-19.61-2.27-26.76-13.23-41.9-22.87-15.72-10-34.16-1.43-49.87,5.21-20.08,8.48-91.42,26-92.59-11.78C20.33,217.91,65,214.34,61.2,185.3c-2.22-17,22.64-59,39-63,9.08-2.18,24.45-3.22,29-9.28,1.6-2.13,11.54-4.33,24.77-6,21.61-2.72,33.19-21.38,60.33-15.07,12.8,3,21.64,8.14,28,19.33,3.77,6.59,3.95,13.93,13.13,15.14,15.29,2,23.92-19.4,37.57-23.37C315.41,96.6,350.42,106.14,364.06,125.24Z"/><path class="cls-6" d="M280.43,177.35c-1.72,3.85-24.13,1-34,.35-12.78-.8-25.52-2.4-38.15-4.32-3.17-.48-7.25-1.73-10.46-1.7-26.39.22-59,42.66-87.24,42.47-20.15-.14-7.31-30.89,5-36.63,18.34-8.56,52.74-18.14,72.47-11.12a55.34,55.34,0,0,0,10.17,2.22c21.81,3.15,44.26-2.26,65.25-.56C273.09,168.83,280.9,176.29,280.43,177.35Z"/><path class="cls-6" d="M160.75,182.9c-11.86,8.63-28.25,23.57-42.5,23-7.22-.27-2.19-13.73,6.88-20.11,8.13-5.72,22.77,1.93,28.93-7.32C160.52,168.83,175.56,172.13,160.75,182.9Z"/><path class="cls-6" d="M272.68,176.17c-2.12,1.71-5.12-.24-14.54.14s-16.2-3.64-11.61-3.83,10.3,1.1,12.24.51,2.38-2.37,7.89-1.9S274.8,174.46,272.68,176.17Z"/><path class="cls-6" d="M150.26,148.07c2.54,5.58-14.68,18.81-23.11,16.67-7-1.78-1.9-10.12-10-13-5.33-1.92-27.43,2.92-20.49-11.09,4.89-9.89,16.28-11.86,24.43-5.2C128.56,141.52,147.63,142.33,150.26,148.07Z"/><path class="cls-6" d="M325.79,123.46c-16.93-5.74-19.34,21.74-32.68,25.77-15.21,4.59-35.34-6.09-50.16-11.72A508.6,508.6,0,0,0,180.52,118c-2.19-.52-4.41-1-6.55-1.43-22.41-4.2-32.5-4.53-51.71,3.91-12.72,5.59,25,22.26,28.67,24,4.62,2.15,5.73,3.52,6.72,5,1.41,2.17,2.68,4.38,13.41,10.77,5.31,3.16,12.93,4.2,20.86,5.4,17.7,2.69,36.46,2.21,54.14-.07,13-1.68,39.89,5.12,41.63,12.39,1.79,7.48-53.69,2.55-63.41,1.32-1.64-.21-3.39-.27-4.64-.56-16.54-3.78-28.74,19.2-14.6,29.81,15.82,11.87,43.71-3.5,54.85-6.93,1.82-.57,5.68.13,8.51.12,25.78-.11,51.73-2.76,77.31-1.77,11.52.45,24.88,1.8,34.91.41,6.24-.87,48-28.59,23.11-34.36-14.3-3.31-33.38-7.5-43.94-18.21C350,137.86,339.55,128.13,325.79,123.46Zm-95.15,26c-13.14,3-12.15,10.43-24.31,11.63-13.87,1.36-30.59-6.92-41.15-15.63-7.3-6-17.49-7.54-25.48-12.36-15.5-9.37,11.6-7.45,15.69-6.25,9.9,2.92,23.07-.29,33.34,1.51,11.42,2,27.38,5.21,37.4,12.05C231.55,144.08,237.94,147.74,230.64,149.42Z"/><path class="cls-6" d="M341.44,139.57c8.41,9.27,21.32,15.53,32.66,21.67,8.4,4.54.7,5.67,3.53,14,2.47,7.22,16.61,20.91-4.47,22.08l-.78.08c-15.85,1.33-54.46.85-60.76-11.76-1.78-3.58-9-9.12-22.88-14.26-4.84-1.79-32.81-10.86-28.31-14.43,1.51-1.2,6.4-1.36,11.29-1.35,13.2,0,27.46-4.85,40-8.37,15.52-4.36,5-22.48,12.72-20.67S335.18,132.65,341.44,139.57Z"/><path class="cls-6" d="M352.21,152.88c10,3.41,8,13.82,4.83,21.46-1.78,4.27-5.9,10.28-14.12,10.52-12.82.39-26.63-2.31-37.65-9.09-12.11-7.45-27-9.55-39.07-17.07,1.67-1.54,4.05-1.3,6.25-.82,1.4.3,3.82.12,5.83.39C300.83,161.37,329.55,145.18,352.21,152.88Z"/><path class="cls-6" d="M344.82,156c6.74,2.17,4.5,9.83,1.76,15.21A16.38,16.38,0,0,1,331.11,180c-7.66-.42-15.51-2.52-20.89-5.88-7.89-4.92-18.82-6.7-26.59-11.79,1.33-.07,2.7-.2,4-.22a5,5,0,0,1,.53,0C305.71,163.77,327.59,150.45,344.82,156Z"/><path class="cls-6" d="M338.14,158.74c3.43.79,1,5.86-1.48,9.22-3.51,4.74-17.09,8.55-22.34,4.56-2.35-1.79-10.9-3.9-13.92-5.14-1.75-.73-1.14-.67,2.49-1C313.11,165.26,328.05,156.42,338.14,158.74Z"/><path class="cls-6" d="M310.59,195.29c-9.14-.66-22.28-3.36-28.47.51-1.47.93-7,4.16-17.65,4.07a78.17,78.17,0,0,1-9.08-.65c-16.55-2.14-25.09,6.19-20.52-4.1s-5.43-9.18-8.88-11.18c-1.37-.8-.75-1.41,1.49-1.52,3.45-.17,10.76.94,21,4.14,12.3,3.86,22.71-.88,34.56-.93,10.54,0,13.63,3.74,24,4.91S328.64,196.6,310.59,195.29Z"/><path class="cls-6" d="M230.64,149.42c-13.14,3-12.15,10.43-24.31,11.63-13.87,1.36-30.59-6.92-41.15-15.63-7.3-6-17.49-7.54-25.48-12.36-15.5-9.37,11.6-7.45,15.69-6.25,9.9,2.92,23.07-.29,33.34,1.51,11.42,2,27.38,5.21,37.4,12.05C231.55,144.08,237.94,147.74,230.64,149.42Z"/><path class="cls-6" d="M221.38,147.18c-11.77,1.66-13.41,6.27-23.48,6.72-9.61.43-20.85-3.3-28.07-9.67-4.65-4.11-17-5.56-25.43-10.7-7-4.28-.69-7.4,13.24-4.5,11.57,2.41,24,1.95,35.64,3.66,8.06,1.19,28.21,4.78,32.07,13.48C224,146.51,222.58,147,221.38,147.18Z"/><path class="cls-6" d="M205.6,141.74c-9.77,1-12.2,3.68-20.7,4s-17.64-3.72-20.38-6.58-9.51-3.47-15.09-6.87c-4.64-2.83-.75-3.28,9.93-1.26s12-.83,27.69,1.65c7.42,1.17,17.15,2.66,22.3,8.31C208.1,141.23,206.75,141.62,205.6,141.74Z"/><path class="cls-6" d="M320.69,204.88c-10,3.38-21.26,6.61-30.75,7-10.83.43-26.51,19.89-34.48,27.32-36.43,34-62.9,7.2-95.76-12.35-15.33-9.12-33.61,10.86-47.71,15.65-9,3.05-52.74,6.72-41.38-16.29,7-14.19,0-32,1.69-46.85,2-17,28.48-25.79,35.91-13.4,7.91,13.22-30.77,38.94-27.55,58.07,3.86,22.89,56.48-13,63.73-17.75,5.76-3.77,25.46-18.75,33.23-12.13,5.25,4.47,3.39,17.22,3.88,22.81,2.35,26.8,63.79,2.68,76.19-3,8.52-3.92,15.87-7,21.15-7.28,10-.47,19.53-4,29.18-5.12C317.94,200.38,328.13,202.38,320.69,204.88Z"/><path class="cls-6" d="M161.17,215.41c-10.8,4.69-11.31-5.52-5.6-11.67s10.7-4.22,16.74-2.41S171.94,210.74,161.17,215.41Z"/></g></g><g id="Layer_3_copy" data-name="Layer 3 copy"><path class="cls-2" d="M188.65,247.83c0,13.32-14.58,22.49-17.32,31.21-2.74-8.72-17.32-17.89-17.32-31.21a17.32,17.32,0,1,1,34.64,0Z"/><path class="cls-7" d="M297.42,128.37c0,13.33-14.57,22.49-17.32,31.21-2.74-8.72-17.31-17.88-17.31-31.21a17.32,17.32,0,1,1,34.63,0Z"/><path class="cls-2" d="M161.47,129.68c0,25.13-27.49,42.42-32.66,58.86-5.17-16.44-32.66-33.73-32.66-58.86a32.66,32.66,0,1,1,65.32,0Z"/></g></svg>