<svg xmlns="http://www.w3.org/2000/svg" viewBox="0 0 400 400"><defs><style>.cls-1,.cls-2,.cls-5{fill:none;}.cls-2,.cls-3,.cls-4,.cls-5{stroke:#000;stroke-linejoin:round;stroke-width:7px;}.cls-3{fill:#fff;}.cls-4{fill:#1122f4;}.cls-5{stroke-linecap:round;}</style></defs><g id="Layer_5" data-name="Layer 5"><rect class="cls-1" width="400" height="400"/></g><g id="Layer_7_copy" data-name="Layer 7 copy"><polygon class="cls-2" points="250.08 138.61 250.14 138.62 193.09 155.27 193.08 155.27 174.98 160.55 163.99 163.76 154.94 161.12 77.85 138.62 106.98 130.12 106.94 130.1 120.27 126.21 193.08 104.97 265.89 126.21 279.22 130.1 250.08 138.61"/><polygon class="cls-2" points="163.99 163.76 162.66 168.23 158.6 181.89 156.87 187.67 77.85 187.67 77.85 138.62 154.94 161.12 163.99 163.76"/><line class="cls-2" x1="193.07" y1="182.39" x2="193.07" y2="177.1"/><line class="cls-2" x1="193.08" y1="155.27" x2="193.08" y2="155.24"/><polygon class="cls-2" points="193.07 235.69 193.07 265.98 181.3 262.55 106.94 240.85 106.94 210.55 181.3 232.25 193.07 235.69"/><rect class="cls-3" x="193.07" y="225.69" width="0.01" height="40.29"/><line class="cls-2" x1="193.08" y1="155.27" x2="193.08" y2="155.24"/><polygon class="cls-2" points="193.07 185.41 193.07 235.69 181.3 232.25 106.94 210.55 122.13 206.12 193.07 185.41"/><rect class="cls-2" x="193.07" y="185.41" width="0.01" height="50.28"/><polygon class="cls-4" points="193.07 293.73 193.07 309.38 106.94 284.24 106.94 268.59 193.07 293.73"/><polygon class="cls-2" points="193.07 265.98 193.07 293.73 106.94 268.59 106.94 240.85 181.3 262.55 193.07 265.98"/><polygon class="cls-2" points="193.07 182.39 193.07 185.41 122.13 206.12 106.94 210.55 106.94 187.67 156.87 187.67 158.6 181.89 174.98 177.1 193.07 182.39"/><polygon class="cls-2" points="279.23 240.85 279.23 284.24 193.08 309.38 193.08 265.98 204.86 262.55 262.61 245.69 279.23 240.85"/><rect class="cls-3" x="193.07" y="265.98" width="0.01" height="43.4"/><polygon class="cls-2" points="279.23 210.55 210.7 230.55 204.86 232.25 193.09 235.69 193.09 185.41 279.23 210.55"/><polygon class="cls-2" points="262.61 245.69 204.86 262.55 193.08 265.98 193.08 235.69 204.86 232.25 210.7 230.55 262.61 245.69"/><polygon class="cls-2" points="279.23 210.55 279.23 240.85 262.61 245.69 210.7 230.55 279.23 210.55"/><polygon class="cls-5" points="193.08 155.27 193.08 182.39 193.07 182.39 174.98 177.1 174.98 160.55 193.07 155.27 193.08 155.27"/><polygon class="cls-2" points="226.78 162.05 279.22 146.71 279.23 146.71 331.69 162.05 279.23 177.4 226.78 162.05"/><polygon class="cls-4" points="331.69 162.05 331.69 178.58 279.23 193.94 279.23 177.4 331.69 162.05"/><polygon class="cls-5" points="279.23 177.4 279.23 193.94 226.78 178.58 226.78 162.05 279.23 177.4"/><polyline class="cls-5" points="279.23 210.55 193.09 185.41 193.09 155.27 250.14 138.62 250.08 138.61 279.22 130.1 279.22 146.71 226.78 162.05 226.78 178.58 279.23 193.94"/><line class="cls-5" x1="279.22" y1="160.64" x2="279.22" y2="146.71"/><polygon class="cls-4" points="174.98 160.55 174.98 177.1 158.6 181.89 162.66 168.23 163.99 163.76 174.98 160.55"/><line class="cls-2" x1="119.55" y1="215.08" x2="119.55" y2="245.69"/><line class="cls-2" x1="140.81" y1="220.44" x2="140.81" y2="248.27"/></g></svg>