<svg xmlns="http://www.w3.org/2000/svg" viewBox="0 0 400 400"><defs><style>.cls-1,.cls-4{fill:none;}.cls-2{fill:#1122f4;}.cls-2,.cls-3,.cls-4{stroke:#000;stroke-linejoin:round;stroke-width:5px;}.cls-3{fill:#fff;}</style></defs><g id="Layer_14" data-name="Layer 14"><rect class="cls-1" width="400" height="400"/></g><g id="Layer_13" data-name="Layer 13"><polygon class="cls-2" points="125.56 155.69 83.78 167.19 67.92 160.33 109.7 148.82 125.56 155.69"/><polygon class="cls-3" points="334.62 192.62 308.31 199.86 217.24 224.94 189.03 212.74 165.51 202.56 83.78 167.19 125.56 155.69 109.7 148.82 136.82 141.35 136.83 141.35 185.28 128.01 292.74 174.5 308.52 181.33 307.37 192.8 334.6 192.61 334.62 192.62"/><polygon class="cls-2" points="217.24 307.79 217.24 321.85 189.03 309.64 189.03 295.58 217.24 307.79"/><polygon class="cls-3" points="165.51 270.45 189.03 280.62 189.03 309.64 67.92 257.24 67.92 160.33 83.78 167.19 165.51 202.56 165.51 270.45"/><polygon class="cls-3" points="217.24 224.94 217.24 292.83 189.03 280.62 189.03 212.74 217.24 224.94"/><polygon class="cls-2" points="308.31 282.08 308.31 296.77 217.24 321.85 217.24 307.16 308.31 282.08"/><polygon class="cls-3" points="334.62 192.62 334.62 208.78 308.31 216.02 308.31 199.86 334.62 192.62"/><polygon class="cls-3" points="334.62 208.78 334.62 289.52 308.31 296.77 308.31 282.08 217.24 307.16 217.24 224.94 308.31 199.86 308.31 216.02 334.62 208.78"/><polygon class="cls-2" points="336.47 174.2 334.62 192.61 334.6 192.61 307.37 192.8 308.52 181.33 309.22 174.39 310.69 174.38 310.7 174.38 336.47 174.2"/><polygon class="cls-3" points="309.22 174.39 308.52 181.33 307.37 192.8 212.87 193.46 214.72 175.05 292.74 174.5 292.77 174.5 309.22 174.39"/><polyline class="cls-3" points="125.56 155.69 152.69 148.22 197.82 135.79"/><polygon class="cls-3" points="214.72 175.05 212.87 193.46 125.56 155.69 109.7 148.82 63.53 128.85 65.38 110.44 107.23 128.55 136.83 141.35 152.69 148.22 214.72 175.05"/><polygon class="cls-3" points="336.47 174.2 310.7 174.38 310.69 174.38 161.36 109.78 187.13 109.6 336.47 174.2"/><polygon class="cls-3" points="310.69 174.38 309.22 174.39 292.77 174.5 292.74 174.5 214.72 175.05 152.7 148.22 152.69 148.22 136.83 141.35 136.82 141.35 107.23 128.55 65.38 110.44 161.36 109.78 310.69 174.38"/><polygon class="cls-3" points="217.24 292.83 217.24 307.79 189.03 295.58 189.03 280.62 217.24 292.83"/><line class="cls-4" x1="189.03" y1="295.58" x2="67.92" y2="243.18"/><line class="cls-4" x1="165.51" y1="270.45" x2="67.92" y2="228.22"/><line class="cls-4" x1="308.31" y1="216.02" x2="217.24" y2="241.1"/><line class="cls-4" x1="334.62" y1="274.83" x2="308.31" y2="282.08"/><polygon class="cls-2" points="189.03 212.74 189.03 280.62 165.51 270.45 165.51 202.56 189.03 212.74"/><line class="cls-4" x1="310.72" y1="174.39" x2="310.7" y2="174.38"/><line class="cls-4" x1="308.31" y1="199.86" x2="308.31" y2="199.66"/><line class="cls-4" x1="308.31" y1="282.08" x2="308.31" y2="216.02"/></g></svg>