<svg xmlns="http://www.w3.org/2000/svg" viewBox="0 0 400 400"><defs><style>.cls-1{fill:none;}.cls-2,.cls-3,.cls-4,.cls-5,.cls-6{fill:#fff;stroke-linejoin:round;stroke-width:5px;}.cls-2{stroke:#000;}.cls-3{stroke:#04093d;}.cls-4{stroke:#09117a;}.cls-5{stroke:#0d1ab7;}.cls-6{stroke:#1122f4;}</style></defs><g id="Layer_3" data-name="Layer 3"><g id="Layer_5" data-name="Layer 5"><rect class="cls-1" width="400" height="400"/></g></g><g id="Layer_2" data-name="Layer 2"><path class="cls-2" d="M220.05,242.45a26.76,26.76,0,0,1-3.09,1.39h0c-14.37,5.53-35.86,1-49.76-10.84a37.68,37.68,0,0,1-8.48-10h0c-5.83-10.41-3.5-21.13,7.16-26.82,14.21-7.55,37.93-3.32,52.87,9.44S234.25,234.88,220.05,242.45Zm86,21.25,2.21-5.9a5.85,5.85,0,0,0-2.57-7.13l-15.47-8.9a5.89,5.89,0,0,1-2.94-4.87h0a5.87,5.87,0,0,1,4.55-5.93l10.63-2.45a5.85,5.85,0,0,0,4.13-7.86l-3.16-8a5.84,5.84,0,0,0-4.4-3.61l-20.32-3.68a5.86,5.86,0,0,1-3.64-2.24l-1.74-2.31a5.87,5.87,0,0,1,.38-7.5l4.81-5.22a5.85,5.85,0,0,0-.5-8.43l-10.62-9.06a5.84,5.84,0,0,0-5.09-1.26l-16.92,3.8a5.89,5.89,0,0,1-4.19-.63l-5.43-3.11a5.88,5.88,0,0,1-3-4.85l-.44-10.83a5.87,5.87,0,0,0-3.85-5.28l-16.1-5.84a5.87,5.87,0,0,0-6.29,1.51l-7.61,8.17a5.86,5.86,0,0,1-5.32,1.78L187,153a5.85,5.85,0,0,1-3.65-2.24L173,137a5.88,5.88,0,0,0-4.72-2.33l-14.19.12a5.86,5.86,0,0,0-5.82,6l.23,7.11a5.87,5.87,0,0,1-4.56,5.91l-3,.67a5.84,5.84,0,0,1-4.19-.62l-17.9-10.2a5.9,5.9,0,0,0-5.66-.08l-7.72,4.11a5.86,5.86,0,0,0-1.94,8.69l6.35,8.47a5.87,5.87,0,0,1-.39,7.5l-.07.07a5.84,5.84,0,0,1-5.31,1.79l-17.83-3.14a5.86,5.86,0,0,0-6.5,3.71l-2.21,5.87a5.87,5.87,0,0,0,2.56,7.15l15.46,8.89a5.85,5.85,0,0,1,2.94,4.88h0A5.85,5.85,0,0,1,94,207.57L83.41,210a5.86,5.86,0,0,0-4.15,7.87l3.13,8a5.85,5.85,0,0,0,4.41,3.62l20.31,3.66a5.84,5.84,0,0,1,3.62,2.23l1.73,2.27a5.87,5.87,0,0,1-.36,7.51l-4.81,5.21a5.86,5.86,0,0,0,.51,8.43l10.61,9.06a5.84,5.84,0,0,0,5.09,1.26l16.92-3.8a5.86,5.86,0,0,1,4.2.64L150,269a5.88,5.88,0,0,1,3,4.85l.43,10.82a5.89,5.89,0,0,0,3.86,5.28l16.12,5.84a5.87,5.87,0,0,0,6.28-1.5l7.57-8.07a5.84,5.84,0,0,1,5.31-1.76l6.23,1.11a5.89,5.89,0,0,1,3.64,2.23l10.35,13.66a5.83,5.83,0,0,0,4.72,2.32l14.2-.12a5.85,5.85,0,0,0,5.8-6l-.22-7.11a5.87,5.87,0,0,1,4.55-5.9l3-.68a5.91,5.91,0,0,1,4.2.62l18,10.27a5.88,5.88,0,0,0,5.65.08l7.73-4.11a5.86,5.86,0,0,0,1.94-8.69L276,273.61a5.85,5.85,0,0,1,.39-7.5l.06-.07a5.85,5.85,0,0,1,5.32-1.78l17.76,3.15A5.86,5.86,0,0,0,306.08,263.7Z"/><path class="cls-3" d="M223.58,232.83a26.76,26.76,0,0,1-3.09,1.39h0c-14.37,5.53-35.86,1-49.76-10.84a37.68,37.68,0,0,1-8.48-10h0c-5.83-10.41-3.5-21.13,7.16-26.82,14.21-7.55,37.93-3.32,52.87,9.44S237.78,225.26,223.58,232.83Zm86,21.25,2.2-5.9a5.86,5.86,0,0,0-2.56-7.13l-15.48-8.91a5.83,5.83,0,0,1-2.93-4.86h0a5.85,5.85,0,0,1,4.54-5.93L306,218.9a5.86,5.86,0,0,0,4.14-7.87l-3.16-8a5.87,5.87,0,0,0-4.41-3.61l-20.31-3.68a5.8,5.8,0,0,1-3.64-2.24l-1.74-2.31a5.85,5.85,0,0,1,.37-7.5l4.82-5.22a5.86,5.86,0,0,0-.51-8.43L271,161a5.84,5.84,0,0,0-5.09-1.26L249,163.54a5.91,5.91,0,0,1-4.2-.63l-5.43-3.11a5.87,5.87,0,0,1-2.94-4.85l-.44-10.83a5.88,5.88,0,0,0-3.86-5.28L216,133a5.87,5.87,0,0,0-6.29,1.51l-7.61,8.17a5.87,5.87,0,0,1-5.31,1.78l-6.21-1.11a5.88,5.88,0,0,1-3.65-2.24l-10.35-13.69a5.84,5.84,0,0,0-4.72-2.33l-14.19.12a5.85,5.85,0,0,0-5.81,6l.22,7.11a5.87,5.87,0,0,1-4.56,5.91l-3,.67a5.86,5.86,0,0,1-4.2-.62l-17.9-10.2a5.88,5.88,0,0,0-5.65-.08L109,138.15a5.87,5.87,0,0,0-1.94,8.69l6.35,8.47a5.85,5.85,0,0,1-.39,7.5l-.06.07a5.86,5.86,0,0,1-5.32,1.79l-17.82-3.14a5.87,5.87,0,0,0-6.51,3.71l-2.21,5.87a5.87,5.87,0,0,0,2.57,7.15l15.46,8.89A5.86,5.86,0,0,1,102.1,192h0A5.85,5.85,0,0,1,97.54,198l-10.61,2.41a5.86,5.86,0,0,0-4.15,7.87l3.13,8a5.85,5.85,0,0,0,4.41,3.62l20.31,3.66a5.86,5.86,0,0,1,3.63,2.23L116,228a5.84,5.84,0,0,1-.36,7.51l-4.8,5.21a5.85,5.85,0,0,0,.5,8.43l10.62,9.06a5.84,5.84,0,0,0,5.09,1.26l16.92-3.8a5.84,5.84,0,0,1,4.19.64l5.42,3.1a5.86,5.86,0,0,1,2.95,4.85L157,275a5.86,5.86,0,0,0,3.86,5.28l16.12,5.84a5.85,5.85,0,0,0,6.27-1.5l7.57-8.07a5.86,5.86,0,0,1,5.31-1.76l6.23,1.11a5.89,5.89,0,0,1,3.64,2.23l10.35,13.66a5.84,5.84,0,0,0,4.72,2.32l14.2-.12a5.87,5.87,0,0,0,5.81-6l-.23-7.11a5.87,5.87,0,0,1,4.56-5.9l3-.68a5.92,5.92,0,0,1,4.2.62l18,10.27a5.9,5.9,0,0,0,5.66.08l7.73-4.11a5.86,5.86,0,0,0,1.93-8.69L279.56,264a5.87,5.87,0,0,1,.39-7.5l.06-.07a5.87,5.87,0,0,1,5.33-1.78l17.75,3.15A5.86,5.86,0,0,0,309.61,254.08Z"/><path class="cls-4" d="M227.1,223.21A26.76,26.76,0,0,1,224,224.6h0c-14.37,5.53-35.86,1-49.76-10.84a37.83,37.83,0,0,1-8.48-10h0c-5.83-10.41-3.5-21.13,7.16-26.82,14.21-7.55,37.93-3.32,52.87,9.44S241.3,215.64,227.1,223.21Zm86,21.25,2.21-5.9a5.86,5.86,0,0,0-2.57-7.13l-15.47-8.91a5.84,5.84,0,0,1-2.94-4.86h0a5.86,5.86,0,0,1,4.54-5.93l10.64-2.45a5.86,5.86,0,0,0,4.13-7.87l-3.16-8a5.85,5.85,0,0,0-4.41-3.61l-20.31-3.68a5.86,5.86,0,0,1-3.64-2.24l-1.74-2.31a5.87,5.87,0,0,1,.38-7.5l4.81-5.22a5.85,5.85,0,0,0-.5-8.43l-10.62-9.06a5.84,5.84,0,0,0-5.09-1.26l-16.92,3.8a5.84,5.84,0,0,1-4.19-.64l-5.44-3.1a5.87,5.87,0,0,1-2.94-4.85l-.44-10.83a5.88,5.88,0,0,0-3.86-5.28l-16.09-5.84a5.87,5.87,0,0,0-6.29,1.51l-7.61,8.17a5.88,5.88,0,0,1-5.32,1.78l-6.21-1.11a5.86,5.86,0,0,1-3.64-2.24L180.09,117.8a5.85,5.85,0,0,0-4.73-2.33l-14.19.12a5.85,5.85,0,0,0-5.81,6l.23,7.11a5.88,5.88,0,0,1-4.56,5.91l-3,.67a5.86,5.86,0,0,1-4.2-.62L126,124.5a5.9,5.9,0,0,0-5.66-.08l-7.73,4.11a5.86,5.86,0,0,0-1.93,8.69l6.35,8.47a5.87,5.87,0,0,1-.39,7.5l-.07.07a5.84,5.84,0,0,1-5.31,1.79l-17.83-3.14a5.85,5.85,0,0,0-6.5,3.71l-2.21,5.87a5.85,5.85,0,0,0,2.56,7.15l15.46,8.89a5.85,5.85,0,0,1,2.94,4.88h0a5.86,5.86,0,0,1-4.56,5.92l-10.61,2.41a5.88,5.88,0,0,0-4.16,7.87l3.13,7.95a5.88,5.88,0,0,0,4.42,3.62l20.3,3.66a5.86,5.86,0,0,1,3.63,2.23l1.72,2.27a5.84,5.84,0,0,1-.36,7.51l-4.8,5.21a5.87,5.87,0,0,0,.5,8.43l10.62,9.06a5.84,5.84,0,0,0,5.09,1.26l16.92-3.8a5.86,5.86,0,0,1,4.2.64l5.42,3.1A5.85,5.85,0,0,1,160,254.6l.44,10.82a5.87,5.87,0,0,0,3.86,5.28l16.12,5.84a5.85,5.85,0,0,0,6.27-1.5l7.57-8.07a5.86,5.86,0,0,1,5.31-1.76l6.24,1.11a5.84,5.84,0,0,1,3.63,2.23l10.35,13.66a5.84,5.84,0,0,0,4.73,2.32l14.19-.12a5.87,5.87,0,0,0,5.81-6.05l-.23-7.11a5.89,5.89,0,0,1,4.56-5.9l3-.68a5.91,5.91,0,0,1,4.2.62l18,10.27a5.88,5.88,0,0,0,5.65.08l7.73-4.11a5.87,5.87,0,0,0,1.94-8.69l-6.35-8.47a5.87,5.87,0,0,1,.39-7.5l.07-.07a5.85,5.85,0,0,1,5.32-1.78l17.76,3.15A5.86,5.86,0,0,0,313.13,244.46Z"/><path class="cls-5" d="M230.62,213.59a27.72,27.72,0,0,1-3.09,1.39h0c-14.37,5.53-35.86,1-49.76-10.84a37.83,37.83,0,0,1-8.48-10h0c-5.83-10.41-3.5-21.13,7.16-26.82,14.21-7.55,37.93-3.32,52.87,9.44S244.82,206,230.62,213.59Zm86,21.25,2.2-5.9a5.85,5.85,0,0,0-2.57-7.13l-15.47-8.91a5.86,5.86,0,0,1-2.94-4.86h0a5.87,5.87,0,0,1,4.55-5.93l10.63-2.45a5.86,5.86,0,0,0,4.14-7.87l-3.17-8a5.84,5.84,0,0,0-4.4-3.61l-20.32-3.68a5.86,5.86,0,0,1-3.64-2.24L283.94,172a5.85,5.85,0,0,1,.37-7.5l4.81-5.22a5.85,5.85,0,0,0-.5-8.43L278,141.76a5.84,5.84,0,0,0-5.09-1.26L256,144.3a5.86,5.86,0,0,1-4.2-.64l-5.43-3.1a5.91,5.91,0,0,1-3-4.85L243,124.88a5.87,5.87,0,0,0-3.85-5.28L223,113.76a5.87,5.87,0,0,0-6.29,1.51l-7.61,8.17a5.88,5.88,0,0,1-5.32,1.78l-6.2-1.11a5.85,5.85,0,0,1-3.65-2.24l-10.35-13.69a5.85,5.85,0,0,0-4.72-2.33L164.7,106a5.84,5.84,0,0,0-5.81,6l.22,7.11a5.87,5.87,0,0,1-4.56,5.91l-3,.67a5.84,5.84,0,0,1-4.19-.62l-17.9-10.2a5.88,5.88,0,0,0-5.65-.08l-7.73,4.11a5.86,5.86,0,0,0-1.94,8.69l6.35,8.47a5.85,5.85,0,0,1-.39,7.5l-.06.07a5.87,5.87,0,0,1-5.32,1.79L96.9,142.29A5.86,5.86,0,0,0,90.4,146l-2.21,5.87A5.87,5.87,0,0,0,90.75,159l15.47,8.89a5.86,5.86,0,0,1,2.93,4.88h0a5.85,5.85,0,0,1-4.56,5.92L94,181.12A5.86,5.86,0,0,0,89.83,189L93,196.94a5.87,5.87,0,0,0,4.41,3.62l20.31,3.66a5.85,5.85,0,0,1,3.63,2.23l1.72,2.27a5.87,5.87,0,0,1-.36,7.51l-4.8,5.21a5.85,5.85,0,0,0,.5,8.43L129,238.93a5.82,5.82,0,0,0,5.08,1.26l16.92-3.8a5.91,5.91,0,0,1,4.2.63l5.42,3.11a5.88,5.88,0,0,1,2.95,4.85L164,255.8a5.86,5.86,0,0,0,3.85,5.28L184,266.92a5.87,5.87,0,0,0,6.28-1.5l7.57-8.07a5.85,5.85,0,0,1,5.31-1.76l6.23,1.11a5.89,5.89,0,0,1,3.64,2.23l10.35,13.66a5.84,5.84,0,0,0,4.72,2.32l14.2-.12a5.85,5.85,0,0,0,5.8-6.05l-.22-7.11a5.87,5.87,0,0,1,4.55-5.9l3-.68a5.91,5.91,0,0,1,4.2.62l18,10.27a5.88,5.88,0,0,0,5.65.08l7.73-4.11a5.86,5.86,0,0,0,1.94-8.69l-6.34-8.47a5.85,5.85,0,0,1,.39-7.5l.06-.07a5.87,5.87,0,0,1,5.33-1.78l17.75,3.15A5.87,5.87,0,0,0,316.66,234.84Z"/><path class="cls-6" d="M234.15,204a28.57,28.57,0,0,1-3.09,1.39h0c-14.37,5.53-35.86,1-49.76-10.84a37.83,37.83,0,0,1-8.48-10h0c-5.83-10.41-3.5-21.13,7.16-26.82,14.21-7.55,37.93-3.32,52.87,9.44S248.35,196.4,234.15,204Zm86,21.24,2.21-5.89a5.87,5.87,0,0,0-2.57-7.13l-15.48-8.91a5.83,5.83,0,0,1-2.93-4.86h0a5.85,5.85,0,0,1,4.54-5.93L316.58,190a5.86,5.86,0,0,0,4.14-7.87l-3.16-8a5.87,5.87,0,0,0-4.41-3.61l-20.31-3.68a5.86,5.86,0,0,1-3.64-2.24l-1.74-2.31a5.87,5.87,0,0,1,.37-7.5l4.82-5.22a5.86,5.86,0,0,0-.51-8.43l-10.61-9.06a5.84,5.84,0,0,0-5.09-1.26l-16.92,3.8a5.86,5.86,0,0,1-4.2-.64l-5.43-3.1a5.87,5.87,0,0,1-2.94-4.85l-.44-10.83a5.87,5.87,0,0,0-3.86-5.28l-16.1-5.84a5.87,5.87,0,0,0-6.29,1.51l-7.61,8.17a5.86,5.86,0,0,1-5.31,1.78l-6.21-1.11a5.88,5.88,0,0,1-3.65-2.24L187.14,98.56a5.87,5.87,0,0,0-4.73-2.33l-14.19.12a5.85,5.85,0,0,0-5.81,6l.22,7.11a5.85,5.85,0,0,1-4.56,5.9l-3,.68a5.86,5.86,0,0,1-4.2-.62L133,105.26a5.88,5.88,0,0,0-5.65-.08l-7.73,4.11a5.87,5.87,0,0,0-1.94,8.69l6.35,8.47a5.85,5.85,0,0,1-.39,7.5l-.06.07a5.86,5.86,0,0,1-5.32,1.79l-17.82-3.14a5.87,5.87,0,0,0-6.51,3.71l-2.21,5.87a5.87,5.87,0,0,0,2.57,7.15l15.46,8.89a5.86,5.86,0,0,1,2.93,4.88h0a5.84,5.84,0,0,1-4.55,5.92L97.5,171.5a5.86,5.86,0,0,0-4.15,7.87l3.13,7.95a5.9,5.9,0,0,0,4.41,3.62l20.31,3.66a5.85,5.85,0,0,1,3.63,2.22l1.72,2.28a5.84,5.84,0,0,1-.36,7.51l-4.8,5.21a5.85,5.85,0,0,0,.5,8.43l10.62,9.06a5.84,5.84,0,0,0,5.09,1.26l16.92-3.8a5.88,5.88,0,0,1,4.19.63l5.42,3.1a5.89,5.89,0,0,1,3,4.86l.44,10.82a5.87,5.87,0,0,0,3.86,5.28l16.12,5.84a5.85,5.85,0,0,0,6.27-1.5l7.57-8.07a5.86,5.86,0,0,1,5.31-1.76l6.23,1.11a5.89,5.89,0,0,1,3.64,2.23L226.87,263a5.87,5.87,0,0,0,4.72,2.32l14.2-.12a5.87,5.87,0,0,0,5.81-6.05l-.23-7.11a5.87,5.87,0,0,1,4.56-5.9l3-.68a5.91,5.91,0,0,1,4.2.62l18,10.27a5.9,5.9,0,0,0,5.66.08l7.73-4.11a5.87,5.87,0,0,0,1.94-8.69l-6.35-8.47a5.87,5.87,0,0,1,.39-7.5l.06-.07a5.88,5.88,0,0,1,5.33-1.78l17.75,3.15A5.86,5.86,0,0,0,320.18,225.21Z"/></g></svg>