<svg xmlns="http://www.w3.org/2000/svg" xmlns:xlink="http://www.w3.org/1999/xlink" viewBox="0 0 400 400"><defs><style>.cls-1,.cls-5{fill:#fff;}.cls-1,.cls-2,.cls-4,.cls-7{stroke:#000;stroke-linejoin:round;stroke-width:5px;}.cls-2,.cls-9{fill:#1122f4;}.cls-3,.cls-7{fill:none;}.cls-6{clip-path:url(#clip-path);}.cls-8{clip-path:url(#clip-path-2);}.cls-10{clip-path:url(#clip-path-3);}.cls-11{clip-path:url(#clip-path-4);}.cls-12{clip-path:url(#clip-path-5);}.cls-13{clip-path:url(#clip-path-6);}.cls-14{clip-path:url(#clip-path-7);}.cls-15{clip-path:url(#clip-path-8);}.cls-16{clip-path:url(#clip-path-9);}.cls-17{clip-path:url(#clip-path-10);}.cls-18{clip-path:url(#clip-path-11);}.cls-19{isolation:isolate;}.cls-20{clip-path:url(#clip-path-12);}.cls-21{clip-path:url(#clip-path-13);}</style><clipPath id="clip-path"><polygon class="cls-1" points="298.57 253.92 288.39 282.65 271.77 291.49 281.95 262.76 298.57 253.92"/></clipPath><clipPath id="clip-path-2"><polygon class="cls-1" points="281.95 262.76 271.77 291.49 249.09 278.57 259.27 249.84 281.95 262.76"/></clipPath><clipPath id="clip-path-3"><polygon class="cls-2" points="249.92 270.03 239.74 298.76 216.6 298.95 226.78 270.23 249.92 270.03"/></clipPath><clipPath id="clip-path-4"><polygon class="cls-1" points="226.78 270.23 216.6 298.95 203.09 281.12 213.27 252.4 226.78 270.23"/></clipPath><clipPath id="clip-path-5"><polygon class="cls-2" points="213.27 252.4 203.09 281.12 191.47 279.05 201.65 250.32 213.27 252.4"/></clipPath><clipPath id="clip-path-6"><polygon class="cls-1" points="201.65 250.32 191.47 279.05 179.08 292.26 189.26 263.53 201.65 250.32"/></clipPath><clipPath id="clip-path-7"><polygon class="cls-1" points="189.26 263.53 179.08 292.26 155.63 283.76 165.81 255.03 189.26 263.53"/></clipPath><clipPath id="clip-path-8"><polygon class="cls-1" points="165.81 255.03 155.63 283.76 154.9 265.79 165.08 237.06 165.81 255.03"/></clipPath><clipPath id="clip-path-9"><polygon class="cls-2" points="165.08 237.06 154.09 265.79 143.07 259.94 154.06 231.22 165.08 237.06"/></clipPath><clipPath id="clip-path-10"><polygon class="cls-1" points="154.87 231.22 144.69 259.94 122.66 264.88 132.84 236.16 154.87 231.22"/></clipPath><clipPath id="clip-path-11"><polygon class="cls-1" points="132.84 236.16 122.66 264.88 105.19 249.96 115.36 221.24 132.84 236.16"/></clipPath><clipPath id="clip-path-12"><polygon class="cls-1" points="121.55 199.9 111.37 228.63 85.6 223.97 95.78 195.25 121.55 199.9"/></clipPath><clipPath id="clip-path-13"><polygon class="cls-2" points="95.78 195.25 85.6 223.97 78.77 206.63 88.95 177.91 95.78 195.25"/></clipPath></defs><g id="Layer_5" data-name="Layer 5"><rect class="cls-3" width="400" height="400"/></g><g id="Layer_4" data-name="Layer 4"><polygon class="cls-2" points="107.47 173.65 110.61 164.76 88.01 151.76 77.83 180.49 86.43 185.43 88.95 177.91 107.47 173.65"/><path class="cls-1" d="M316.51,234.63l5.66-15.12-22.6-13-.3-8.09,22-5.06L314.4,176l-25.78-4.66-6.06-8.05L294.82,150l-17.48-14.92-22,4.94-10.22-5.85-.73-18-23.44-8.51L208.52,121l-11.61-2.07L183.4,101.05l-23.14.19.57,17.94-9.92,2.25-22.68-12.92-16.62,8.84L125,135.21l-5.56,6-25.76-4.54L88,151.76l22.6,13,.29,8.1-22,5,6.83,17.34,25.77,4.65,6.07,8-12.26,13.29,17.48,14.92,22-4.94,10.21,5.84.73,18,23.45,8.5,12.39-13.21,11.62,2.08,13.51,17.83,23.14-.2-.57-17.93,9.92-2.26L282,262.76l16.62-8.84-13.38-17.86,5.56-6Zm-84.32-25.82a26.17,26.17,0,0,1-3.09,1.39l0,0c-14.37,5.53-35.86,1-49.76-10.84a37.58,37.58,0,0,1-8.48-10h0c-5.83-10.41-3.5-21.13,7.16-26.82,14.21-7.55,37.93-3.32,52.87,9.44S246.39,201.24,232.19,208.81Z"/><polygon class="cls-4" points="282.56 163.32 294.81 150.04 287.69 170.14 282.56 163.32"/><polygon class="cls-1" points="313.7 214.6 321.22 193.36 299.27 198.42 299.57 206.51 313.7 214.6"/><polyline class="cls-1" points="295.97 261.52 306.33 263.35 316.51 234.63 290.75 230.09 285.19 236.06 298.57 253.92 295.97 261.52"/><polygon class="cls-5" points="298.57 253.92 288.39 282.65 271.77 291.49 281.95 262.76 298.57 253.92"/><g class="cls-6"><polygon class="cls-1" points="298.57 253.92 288.39 282.65 271.77 291.49 281.95 262.76 298.57 253.92"/></g><polygon class="cls-7" points="298.57 253.92 288.39 282.65 271.77 291.49 281.95 262.76 298.57 253.92"/><polygon class="cls-5" points="281.95 262.76 271.77 291.49 249.09 278.57 259.27 249.84 281.95 262.76"/><g class="cls-8"><polygon class="cls-1" points="281.95 262.76 271.77 291.49 249.09 278.57 259.27 249.84 281.95 262.76"/></g><polygon class="cls-7" points="281.95 262.76 271.77 291.49 249.09 278.57 259.27 249.84 281.95 262.76"/><polygon class="cls-9" points="249.92 270.03 239.74 298.76 216.6 298.95 226.78 270.23 249.92 270.03"/><g class="cls-10"><polygon class="cls-2" points="249.92 270.03 239.74 298.76 216.6 298.95 226.78 270.23 249.92 270.03"/></g><polygon class="cls-7" points="249.92 270.03 239.74 298.76 216.6 298.95 226.78 270.23 249.92 270.03"/><polygon class="cls-5" points="226.78 270.23 216.6 298.95 203.09 281.12 213.27 252.4 226.78 270.23"/><g class="cls-11"><polygon class="cls-1" points="226.78 270.23 216.6 298.95 203.09 281.12 213.27 252.4 226.78 270.23"/></g><polygon class="cls-7" points="226.78 270.23 216.6 298.95 203.09 281.12 213.27 252.4 226.78 270.23"/><polygon class="cls-9" points="213.27 252.4 203.09 281.12 191.47 279.05 201.65 250.32 213.27 252.4"/><g class="cls-12"><polygon class="cls-2" points="213.27 252.4 203.09 281.12 191.47 279.05 201.65 250.32 213.27 252.4"/></g><polygon class="cls-7" points="213.27 252.4 203.09 281.12 191.47 279.05 201.65 250.32 213.27 252.4"/><polygon class="cls-5" points="201.65 250.32 191.47 279.05 179.08 292.26 189.26 263.53 201.65 250.32"/><g class="cls-13"><polygon class="cls-1" points="201.65 250.32 191.47 279.05 179.08 292.26 189.26 263.53 201.65 250.32"/></g><polygon class="cls-7" points="201.65 250.32 191.47 279.05 179.08 292.26 189.26 263.53 201.65 250.32"/><polygon class="cls-5" points="189.26 263.53 179.08 292.26 155.63 283.76 165.81 255.03 189.26 263.53"/><g class="cls-14"><polygon class="cls-1" points="189.26 263.53 179.08 292.26 155.63 283.76 165.81 255.03 189.26 263.53"/></g><polygon class="cls-7" points="189.26 263.53 179.08 292.26 155.63 283.76 165.81 255.03 189.26 263.53"/><polygon class="cls-5" points="165.81 255.03 155.63 283.76 154.9 265.79 165.08 237.06 165.81 255.03"/><g class="cls-15"><polygon class="cls-1" points="165.81 255.03 155.63 283.76 154.9 265.79 165.08 237.06 165.81 255.03"/></g><polygon class="cls-7" points="165.81 255.03 155.63 283.76 154.9 265.79 165.08 237.06 165.81 255.03"/><polygon class="cls-9" points="165.08 237.06 154.09 265.79 143.07 259.94 154.06 231.22 165.08 237.06"/><g class="cls-16"><polygon class="cls-2" points="165.08 237.06 154.09 265.79 143.07 259.94 154.06 231.22 165.08 237.06"/></g><polygon class="cls-7" points="165.08 237.06 154.09 265.79 143.07 259.94 154.06 231.22 165.08 237.06"/><polygon class="cls-5" points="154.87 231.22 144.69 259.94 122.66 264.88 132.84 236.16 154.87 231.22"/><g class="cls-17"><polygon class="cls-1" points="154.87 231.22 144.69 259.94 122.66 264.88 132.84 236.16 154.87 231.22"/></g><polygon class="cls-7" points="154.87 231.22 144.69 259.94 122.66 264.88 132.84 236.16 154.87 231.22"/><polygon class="cls-5" points="132.84 236.16 122.66 264.88 105.19 249.96 115.36 221.24 132.84 236.16"/><g class="cls-18"><polygon class="cls-1" points="132.84 236.16 122.66 264.88 105.19 249.96 115.36 221.24 132.84 236.16"/></g><polygon class="cls-7" points="132.84 236.16 122.66 264.88 105.19 249.96 115.36 221.24 132.84 236.16"/><g class="cls-19"><polygon class="cls-1" points="121.55 199.9 127.62 207.95 113.02 223.97 121.55 199.9"/></g><polygon class="cls-5" points="121.55 199.9 111.37 228.63 85.6 223.97 95.78 195.25 121.55 199.9"/><g class="cls-20"><polygon class="cls-1" points="121.55 199.9 111.37 228.63 85.6 223.97 95.78 195.25 121.55 199.9"/></g><polygon class="cls-7" points="121.55 199.9 111.37 228.63 85.6 223.97 95.78 195.25 121.55 199.9"/><polygon class="cls-9" points="95.78 195.25 85.6 223.97 78.77 206.63 88.95 177.91 95.78 195.25"/><g class="cls-21"><polygon class="cls-2" points="95.78 195.25 85.6 223.97 78.77 206.63 88.95 177.91 95.78 195.25"/></g><polygon class="cls-7" points="95.78 195.25 85.6 223.97 78.77 206.63 88.95 177.91 95.78 195.25"/><polygon class="cls-1" points="104.12 138.49 111.61 117.35 124.99 135.21 119.43 141.19 104.12 138.49"/><path class="cls-7" d="M229.1,210.16h0c-14.37,5.53-35.86,1-49.76-10.84a37.58,37.58,0,0,1-8.48-10v0c14.36-5.53,35.87-1,49.77,10.83A37.59,37.59,0,0,1,229.1,210.16Z"/><path class="cls-2" d="M232.19,208.81a26.17,26.17,0,0,1-3.09,1.39l0,0a37.46,37.46,0,0,0-8.48-10c-13.9-11.88-35.4-16.37-49.76-10.84h0c-5.83-10.41-3.5-21.13,7.16-26.82,14.21-7.55,37.93-3.32,52.87,9.44S246.39,201.24,232.19,208.81Z"/><path class="cls-7" d="M229.11,210.2a.06.06,0,0,0,0,0"/><polygon class="cls-4" points="160.26 101.24 154.66 120.58 160.83 119.18 160.26 101.24"/><polygon class="cls-1" points="249.09 278.57 246.39 279.99 249.92 270.03 249.35 252.1 259.27 249.84 249.09 278.57"/></g></svg>