<svg xmlns="http://www.w3.org/2000/svg" viewBox="0 0 400 400"><defs><style>.cls-1{fill:none;}.cls-2,.cls-3,.cls-4,.cls-5{fill:#fff;stroke-linejoin:round;stroke-width:5px;}.cls-2{stroke:#000;}.cls-3{stroke:#060b51;}.cls-4{stroke:#0b17a3;}.cls-5{stroke:#1122f4;}</style></defs><g id="Layer_3" data-name="Layer 3"><g id="Layer_5" data-name="Layer 5"><rect class="cls-1" width="400" height="400"/></g></g><g id="Layer_2" data-name="Layer 2"><path class="cls-2" d="M216.14,247.91a26.76,26.76,0,0,1-3.09,1.39h0c-14.37,5.53-35.86,1-49.76-10.84a37.52,37.52,0,0,1-8.48-10h0c-5.83-10.41-3.5-21.13,7.16-26.82,14.21-7.55,37.93-3.32,52.87,9.44S230.34,240.34,216.14,247.91Zm86,21.25,2.21-5.89a5.87,5.87,0,0,0-2.57-7.14l-15.47-8.9a5.89,5.89,0,0,1-2.94-4.86h0a5.86,5.86,0,0,1,4.55-5.93L298.58,234a5.86,5.86,0,0,0,4.13-7.87l-3.16-8a5.85,5.85,0,0,0-4.41-3.61l-20.31-3.67a5.86,5.86,0,0,1-3.64-2.24l-1.74-2.31a5.87,5.87,0,0,1,.38-7.5l4.81-5.22a5.85,5.85,0,0,0-.5-8.43l-10.62-9.07a5.9,5.9,0,0,0-5.09-1.26l-16.92,3.8a5.83,5.83,0,0,1-4.19-.63l-5.43-3.11a5.86,5.86,0,0,1-2.95-4.85l-.44-10.83a5.85,5.85,0,0,0-3.85-5.27l-16.1-5.85a5.87,5.87,0,0,0-6.29,1.52l-7.61,8.17a5.88,5.88,0,0,1-5.32,1.77l-6.21-1.11a5.84,5.84,0,0,1-3.64-2.23l-10.35-13.7a5.88,5.88,0,0,0-4.73-2.33l-14.19.12a5.87,5.87,0,0,0-5.81,6.05l.23,7.11a5.87,5.87,0,0,1-4.56,5.9l-3,.68a5.87,5.87,0,0,1-4.2-.63L115,149.21a5.84,5.84,0,0,0-5.66-.08l-7.72,4.11a5.86,5.86,0,0,0-1.94,8.69L106,170.4a5.87,5.87,0,0,1-.39,7.5l-.07.07a5.86,5.86,0,0,1-5.31,1.79l-17.83-3.15a5.87,5.87,0,0,0-6.5,3.71l-2.21,5.88a5.85,5.85,0,0,0,2.56,7.14l15.46,8.9a5.85,5.85,0,0,1,2.94,4.87h0A5.87,5.87,0,0,1,90.11,213L79.5,215.45a5.86,5.86,0,0,0-4.16,7.86l3.13,7.95a5.88,5.88,0,0,0,4.42,3.62l20.3,3.66a5.88,5.88,0,0,1,3.63,2.23l1.73,2.27a5.87,5.87,0,0,1-.37,7.52l-4.8,5.2a5.87,5.87,0,0,0,.51,8.44l10.61,9.06a5.87,5.87,0,0,0,5.09,1.26l16.92-3.8a5.86,5.86,0,0,1,4.2.63l5.42,3.1a5.85,5.85,0,0,1,2.94,4.85l.44,10.83a5.86,5.86,0,0,0,3.86,5.27l16.12,5.84a5.85,5.85,0,0,0,6.27-1.5l7.58-8.07a5.83,5.83,0,0,1,5.3-1.76l6.24,1.12a5.84,5.84,0,0,1,3.64,2.23l10.34,13.65a5.88,5.88,0,0,0,4.73,2.33l14.19-.13a5.86,5.86,0,0,0,5.81-6.05l-.22-7.1a5.85,5.85,0,0,1,4.55-5.9l3-.68a5.81,5.81,0,0,1,4.2.62l18,10.26a5.85,5.85,0,0,0,5.65.09l7.73-4.12a5.85,5.85,0,0,0,1.94-8.69l-6.35-8.47a5.87,5.87,0,0,1,.4-7.5l.06-.06a5.83,5.83,0,0,1,5.32-1.79l17.76,3.16A5.86,5.86,0,0,0,302.17,269.16Z"/><path class="cls-3" d="M223.45,231.44a26.76,26.76,0,0,1-3.09,1.39h0c-14.37,5.53-35.86,1-49.76-10.84a37.52,37.52,0,0,1-8.48-10h0c-5.83-10.41-3.5-21.13,7.16-26.82,14.21-7.55,37.93-3.32,52.87,9.44S237.65,223.87,223.45,231.44Zm86,21.25,2.2-5.89a5.86,5.86,0,0,0-2.56-7.14l-15.48-8.9a5.86,5.86,0,0,1-2.93-4.86h0a5.85,5.85,0,0,1,4.54-5.93l10.63-2.44a5.86,5.86,0,0,0,4.14-7.87l-3.16-8a5.89,5.89,0,0,0-4.41-3.61l-20.31-3.67a5.83,5.83,0,0,1-3.64-2.24l-1.74-2.31a5.86,5.86,0,0,1,.37-7.5l4.82-5.22a5.86,5.86,0,0,0-.51-8.43l-10.61-9.07a5.91,5.91,0,0,0-5.09-1.26l-16.92,3.8a5.86,5.86,0,0,1-4.2-.63l-5.43-3.11a5.85,5.85,0,0,1-2.94-4.85l-.44-10.83a5.86,5.86,0,0,0-3.86-5.27l-16.1-5.85a5.87,5.87,0,0,0-6.29,1.52L202,141.3a5.85,5.85,0,0,1-5.31,1.77L190.43,142a5.86,5.86,0,0,1-3.65-2.23L176.44,126a5.9,5.9,0,0,0-4.73-2.33l-14.19.12a5.86,5.86,0,0,0-5.81,6.05l.22,7.11a5.86,5.86,0,0,1-4.56,5.9l-3,.68a5.86,5.86,0,0,1-4.2-.63l-17.9-10.19a5.82,5.82,0,0,0-5.65-.08l-7.73,4.11a5.87,5.87,0,0,0-1.94,8.69l6.35,8.47a5.85,5.85,0,0,1-.39,7.5l-.06.07a5.88,5.88,0,0,1-5.32,1.79l-17.82-3.15a5.88,5.88,0,0,0-6.51,3.71L81,169.73a5.86,5.86,0,0,0,2.57,7.14L99,185.77a5.86,5.86,0,0,1,2.93,4.87h0a5.86,5.86,0,0,1-4.55,5.93L86.8,199a5.85,5.85,0,0,0-4.15,7.86l3.13,7.95a5.86,5.86,0,0,0,4.41,3.62l20.31,3.66a5.91,5.91,0,0,1,3.63,2.23l1.72,2.27a5.86,5.86,0,0,1-.36,7.52l-4.8,5.2a5.87,5.87,0,0,0,.5,8.44l10.62,9.06a5.87,5.87,0,0,0,5.09,1.26l16.92-3.8a5.83,5.83,0,0,1,4.19.63l5.42,3.1a5.86,5.86,0,0,1,2.95,4.85l.44,10.83a5.86,5.86,0,0,0,3.86,5.27l16.12,5.84a5.85,5.85,0,0,0,6.27-1.5l7.57-8.07a5.86,5.86,0,0,1,5.31-1.76l6.23,1.12a5.84,5.84,0,0,1,3.64,2.23l10.35,13.65a5.88,5.88,0,0,0,4.72,2.33l14.2-.13a5.87,5.87,0,0,0,5.81-6.05l-.23-7.1a5.85,5.85,0,0,1,4.56-5.9l3-.68a5.81,5.81,0,0,1,4.2.62l18,10.26a5.87,5.87,0,0,0,5.66.09l7.73-4.12a5.87,5.87,0,0,0,1.94-8.69l-6.35-8.47a5.87,5.87,0,0,1,.39-7.5l.06-.06a5.86,5.86,0,0,1,5.33-1.79L303,256.41A5.87,5.87,0,0,0,309.48,252.69Z"/><path class="cls-4" d="M230.75,215a26,26,0,0,1-3.09,1.39h0c-14.37,5.53-35.86,1-49.76-10.84a37.52,37.52,0,0,1-8.48-10h0c-5.83-10.41-3.5-21.13,7.16-26.82,14.21-7.55,37.93-3.32,52.87,9.44S245,207.4,230.75,215Zm86,21.25,2.21-5.89a5.86,5.86,0,0,0-2.57-7.14L301,214.29a5.89,5.89,0,0,1-2.94-4.86h0a5.87,5.87,0,0,1,4.55-5.93l10.63-2.44a5.86,5.86,0,0,0,4.13-7.87l-3.16-8a5.86,5.86,0,0,0-4.4-3.61l-20.32-3.67a5.86,5.86,0,0,1-3.64-2.24l-1.74-2.31a5.87,5.87,0,0,1,.38-7.5l4.81-5.22a5.85,5.85,0,0,0-.5-8.43l-10.62-9.07a5.9,5.9,0,0,0-5.09-1.26l-16.92,3.8a5.84,5.84,0,0,1-4.19-.63l-5.43-3.11a5.86,5.86,0,0,1-2.95-4.85l-.44-10.83a5.85,5.85,0,0,0-3.85-5.27l-16.1-5.85a5.87,5.87,0,0,0-6.29,1.52l-7.61,8.17a5.88,5.88,0,0,1-5.32,1.77l-6.2-1.11a5.84,5.84,0,0,1-3.65-2.23l-10.35-13.7a5.88,5.88,0,0,0-4.72-2.33l-14.19.12A5.87,5.87,0,0,0,159,113.4l.23,7.11a5.86,5.86,0,0,1-4.56,5.9l-3,.68a5.84,5.84,0,0,1-4.19-.63l-17.9-10.19a5.84,5.84,0,0,0-5.66-.08l-7.72,4.11a5.86,5.86,0,0,0-1.94,8.69l6.35,8.47a5.87,5.87,0,0,1-.39,7.5l-.06.07a5.89,5.89,0,0,1-5.32,1.79L97,143.67a5.87,5.87,0,0,0-6.5,3.71l-2.21,5.88a5.85,5.85,0,0,0,2.56,7.14l15.47,8.9a5.86,5.86,0,0,1,2.93,4.87h0a5.87,5.87,0,0,1-4.56,5.93l-10.61,2.41A5.85,5.85,0,0,0,90,190.37l3.13,7.95a5.85,5.85,0,0,0,4.41,3.62l20.31,3.67a5.83,5.83,0,0,1,3.62,2.22l1.73,2.27a5.88,5.88,0,0,1-.36,7.52l-4.81,5.2a5.87,5.87,0,0,0,.51,8.44l10.61,9.06a5.87,5.87,0,0,0,5.09,1.26l16.92-3.8a5.86,5.86,0,0,1,4.2.63l5.42,3.1a5.88,5.88,0,0,1,2.95,4.85l.43,10.83a5.87,5.87,0,0,0,3.86,5.27l16.12,5.84a5.87,5.87,0,0,0,6.28-1.5l7.57-8.07a5.84,5.84,0,0,1,5.31-1.76l6.23,1.12a5.84,5.84,0,0,1,3.64,2.23L223.48,274a5.86,5.86,0,0,0,4.72,2.33l14.2-.13a5.85,5.85,0,0,0,5.8-6.05L248,263a5.85,5.85,0,0,1,4.55-5.9l3-.68a5.81,5.81,0,0,1,4.2.62l18,10.26a5.85,5.85,0,0,0,5.65.09l7.73-4.12a5.85,5.85,0,0,0,1.94-8.69l-6.34-8.47a5.85,5.85,0,0,1,.39-7.5l.06-.06a5.83,5.83,0,0,1,5.32-1.79l17.76,3.16A5.86,5.86,0,0,0,316.78,236.22Z"/><path class="cls-5" d="M238.06,198.5a26.76,26.76,0,0,1-3.09,1.39h0c-14.37,5.53-35.86,1-49.76-10.84a37.52,37.52,0,0,1-8.48-10h0c-5.83-10.41-3.5-21.13,7.16-26.82,14.21-7.55,37.93-3.32,52.87,9.44S252.26,190.93,238.06,198.5Zm86,21.25,2.21-5.89a5.87,5.87,0,0,0-2.57-7.14l-15.48-8.9a5.86,5.86,0,0,1-2.93-4.86h0a5.86,5.86,0,0,1,4.54-5.93l10.63-2.44a5.86,5.86,0,0,0,4.14-7.87l-3.16-8a5.87,5.87,0,0,0-4.41-3.61l-20.31-3.67a5.86,5.86,0,0,1-3.64-2.24l-1.74-2.31a5.86,5.86,0,0,1,.37-7.5l4.82-5.22a5.86,5.86,0,0,0-.5-8.43l-10.62-9.07a5.9,5.9,0,0,0-5.09-1.26l-16.92,3.8a5.87,5.87,0,0,1-4.2-.63l-5.43-3.11a5.85,5.85,0,0,1-2.94-4.85l-.44-10.83a5.86,5.86,0,0,0-3.86-5.27l-16.1-5.85a5.85,5.85,0,0,0-6.28,1.52l-7.61,8.17a5.88,5.88,0,0,1-5.32,1.77L205,109a5.86,5.86,0,0,1-3.65-2.23l-10.34-13.7a5.88,5.88,0,0,0-4.73-2.33l-14.19.12a5.87,5.87,0,0,0-5.81,6.05l.23,7.11a5.87,5.87,0,0,1-4.57,5.9l-3,.68a5.86,5.86,0,0,1-4.2-.63L136.9,99.8a5.82,5.82,0,0,0-5.65-.08l-7.73,4.11a5.86,5.86,0,0,0-1.93,8.69l6.35,8.47a5.88,5.88,0,0,1-.39,7.5l-.07.07a5.88,5.88,0,0,1-5.32,1.79l-17.82-3.15a5.87,5.87,0,0,0-6.5,3.71l-2.22,5.88a5.86,5.86,0,0,0,2.57,7.14l15.46,8.9a5.89,5.89,0,0,1,2.94,4.87h0a5.88,5.88,0,0,1-4.56,5.93L101.42,166a5.86,5.86,0,0,0-4.16,7.86l3.13,7.95a5.88,5.88,0,0,0,4.42,3.62l20.3,3.67a5.85,5.85,0,0,1,3.63,2.22l1.72,2.27a5.86,5.86,0,0,1-.36,7.52l-4.8,5.2a5.87,5.87,0,0,0,.5,8.44l10.62,9.06a5.87,5.87,0,0,0,5.09,1.26l16.92-3.8a5.83,5.83,0,0,1,4.19.63L168,225a5.83,5.83,0,0,1,3,4.85l.44,10.83a5.86,5.86,0,0,0,3.86,5.27l16.12,5.84a5.85,5.85,0,0,0,6.27-1.5l7.57-8.07a5.86,5.86,0,0,1,5.31-1.76l6.23,1.12a5.84,5.84,0,0,1,3.64,2.23l10.35,13.65a5.88,5.88,0,0,0,4.72,2.33l14.2-.13a5.87,5.87,0,0,0,5.81-6l-.23-7.1a5.85,5.85,0,0,1,4.56-5.9l3-.68a5.81,5.81,0,0,1,4.2.62l18,10.26a5.85,5.85,0,0,0,5.65.09l7.73-4.12a5.87,5.87,0,0,0,1.94-8.69L294,229.66a5.87,5.87,0,0,1,.39-7.5l.06-.06a5.86,5.86,0,0,1,5.33-1.79l17.76,3.16A5.86,5.86,0,0,0,324.09,219.75Z"/></g></svg>