<svg xmlns="http://www.w3.org/2000/svg" viewBox="0 0 400 400"><defs><style>.cls-1,.cls-4{fill:none;}.cls-2{fill:#1122f4;}.cls-2,.cls-3,.cls-4{stroke:#000;stroke-linejoin:round;stroke-width:5px;}.cls-3{fill:#fff;}.cls-5{fill:#000001;}</style></defs><g id="Layer_1" data-name="Layer 1"><rect class="cls-1" width="400" height="400"/></g><g id="Layer_3" data-name="Layer 3"><path class="cls-2" d="M153.64,134.05c-48.19,0-87.26,25.3-87.26,56.5,0,9.61,3.7,18.65,10.23,26.57a62.21,62.21,0,0,0,10.21,9.77c9.07,7,20.7,12.53,34,16a129,129,0,0,0,32.86,4.15c48.19,0,87.25-25.3,87.25-56.51S201.83,134.05,153.64,134.05Zm0,99.71c-39.27,0-71.11-19.34-71.11-43.21s31.84-43.21,71.11-43.21,71.11,19.35,71.11,43.21S192.91,233.76,153.64,233.76Z"/><path class="cls-3" d="M224.75,190.55c0,23.87-31.84,43.21-71.11,43.21s-71.11-19.34-71.11-43.21,31.84-43.21,71.11-43.21S224.75,166.69,224.75,190.55Z"/><path class="cls-3" d="M240.89,190.55v25.11c0,31.21-39.06,56.51-87.25,56.51-26.82,0-50.82-7.84-66.82-20.18v-25.1c9.07,7,20.7,12.53,34,16a129,129,0,0,0,32.86,4.15C201.83,247.06,240.89,221.76,240.89,190.55Z"/><path class="cls-4" d="M222.23,238c-16,13.14-40.77,21.57-68.59,21.57a129,129,0,0,1-32.92-4.16"/><path class="cls-2" d="M86.82,226.89V252a62.16,62.16,0,0,1-10.21-9.76V217.12A62.21,62.21,0,0,0,86.82,226.89Z"/><path class="cls-3" d="M76.61,217.12v25.11c-6.53-7.92-10.23-17-10.23-26.57V190.55C66.38,200.16,70.08,209.2,76.61,217.12Z"/><line class="cls-3" x1="120.78" y1="242.91" x2="120.78" y2="267.58"/><path class="cls-5" d="M140,161.38l-12.43,7.11-5.77,23.35,15,1.53,3.16-14.66,40.81,32.19,12.78-7.3Z"/><path class="cls-2" d="M281.42,126.2c-41.83-23.93-88.3-21.37-103.8,5.72-4.77,8.34-6,18-4.31,28.14a62,62,0,0,0,4,13.55c4.39,10.57,11.74,21.15,21.51,30.77a129.59,129.59,0,0,0,26.47,19.91c41.83,23.93,88.3,21.37,103.79-5.72S323.25,150.13,281.42,126.2Zm-49.51,86.55c-34.08-19.5-52.12-52.1-40.27-72.81s49.1-21.7,83.18-2.2,52.12,52.1,40.27,72.81S266,232.25,231.91,212.75Z"/><path class="cls-3" d="M315.09,210.55c-11.85,20.72-49.09,21.7-83.18,2.2s-52.12-52.1-40.27-72.81,49.1-21.7,83.18-2.2S326.94,189.84,315.09,210.55Z"/><path class="cls-3" d="M329.1,218.57l-12.46,21.8c-15.5,27.08-62,29.64-103.8,5.71-23.28-13.31-40.22-32-48-50.68l12.47-21.79c4.39,10.57,11.74,21.15,21.51,30.77a129.59,129.59,0,0,0,26.47,19.91C267.14,248.22,313.61,245.66,329.1,218.57Z"/><path class="cls-4" d="M289.32,250.52c-20.39,3.47-46.09-1.51-70.25-15.33a129,129,0,0,1-26.5-19.95"/><path class="cls-2" d="M177.33,173.61,164.86,195.4a62,62,0,0,1-4-13.55l12.46-21.79A62,62,0,0,0,177.33,173.61Z"/><path class="cls-3" d="M173.31,160.06l-12.46,21.79c-1.74-10.11-.46-19.8,4.3-28.14l12.47-21.79C172.85,140.26,171.58,149.94,173.31,160.06Z"/><line class="cls-3" x1="198.84" y1="204.37" x2="186.6" y2="225.79"/><path class="cls-5" d="M256,143.15H241.68l-16.6,17.4,12.22,8.76,10-11.16,19.44,48.21h14.72Z"/></g></svg>