<svg xmlns="http://www.w3.org/2000/svg" viewBox="0 0 400 400"><defs><style>.cls-1{fill:none;}.cls-2,.cls-3,.cls-4,.cls-5,.cls-6{fill:#fff;}.cls-2{stroke:#000;}.cls-2,.cls-3,.cls-4,.cls-5,.cls-6,.cls-7{stroke-linejoin:round;stroke-width:5px;}.cls-3{stroke:#04093d;}.cls-4{stroke:#09117a;}.cls-5{stroke:#0d1ab7;}.cls-6,.cls-7{stroke:#1122f4;}.cls-7{fill:#1122f4;}.cls-8{fill:#000001;}</style></defs><g id="Layer_1" data-name="Layer 1"><rect class="cls-1" width="400" height="400"/></g><g id="Layer_3" data-name="Layer 3"><path class="cls-2" d="M240.89,224.53c0,31.21-39.06,56.51-87.25,56.51a129,129,0,0,1-32.86-4.15c-13.26-3.49-24.89-9-34-16a62.21,62.21,0,0,1-10.21-9.77c-6.53-7.92-10.23-17-10.23-26.57,0-31.2,39.07-56.5,87.26-56.5S240.89,193.33,240.89,224.53Z"/><path class="cls-3" d="M240.89,214.82c0,31.21-39.06,56.51-87.25,56.51a129,129,0,0,1-32.86-4.15c-13.26-3.49-24.89-9-34-16a62.21,62.21,0,0,1-10.21-9.77c-6.53-7.92-10.23-17-10.23-26.57,0-31.2,39.07-56.5,87.26-56.5S240.89,183.62,240.89,214.82Z"/><path class="cls-4" d="M240.89,205.11c0,31.21-39.06,56.51-87.25,56.51a129,129,0,0,1-32.86-4.15c-13.26-3.49-24.89-9-34-16a62.21,62.21,0,0,1-10.21-9.77c-6.53-7.92-10.23-17-10.23-26.57,0-31.2,39.07-56.5,87.26-56.5S240.89,173.91,240.89,205.11Z"/><path class="cls-5" d="M240.89,195.4c0,31.21-39.06,56.51-87.25,56.51a129,129,0,0,1-32.86-4.15c-13.26-3.49-24.89-9-34-16A62.21,62.21,0,0,1,76.61,222c-6.53-7.92-10.23-17-10.23-26.57,0-31.2,39.07-56.5,87.26-56.5S240.89,164.2,240.89,195.4Z"/><path class="cls-6" d="M240.89,185.69c0,31.21-39.06,56.51-87.25,56.51a129,129,0,0,1-32.86-4.15c-13.26-3.49-24.89-9-34-16a62.21,62.21,0,0,1-10.21-9.77c-6.53-7.92-10.23-17-10.23-26.57,0-31.2,39.07-56.5,87.26-56.5S240.89,154.49,240.89,185.69Z"/><path class="cls-7" d="M240.89,185.69c0,31.21-39.06,56.51-87.25,56.51a129,129,0,0,1-32.86-4.15c-13.26-3.49-24.89-9-34-16a62.21,62.21,0,0,1-10.21-9.77c-6.53-7.92-10.23-17-10.23-26.57,0-31.2,39.07-56.5,87.26-56.5S240.89,154.49,240.89,185.69Z"/><path class="cls-2" d="M224.75,185.69c0,23.87-31.84,43.21-71.11,43.21s-71.11-19.34-71.11-43.21,31.84-43.21,71.11-43.21S224.75,161.83,224.75,185.69Z"/><path class="cls-8" d="M140,156.52l-12.43,7.11L121.79,187l15,1.53,3.16-14.66L180.71,206l12.78-7.3Z"/><path class="cls-2" d="M306.64,256.39c-19.95,24-66.16,18.5-103.23-12.29a129.52,129.52,0,0,1-22.62-24.19c-8-11.16-13.37-22.85-15.88-34a61.89,61.89,0,0,1-1.61-14c0-10.27,3-19.59,9.11-27,19.93-24,66.15-18.49,103.22,12.3S326.58,232.39,306.64,256.39Z"/><path class="cls-3" d="M312.84,248.92c-19.94,24-66.15,18.5-103.22-12.29A128.86,128.86,0,0,1,187,212.44c-8-11.16-13.38-22.85-15.89-34a62.47,62.47,0,0,1-1.61-14c0-10.27,3-19.59,9.11-27,19.94-24,66.16-18.49,103.23,12.3S332.78,224.92,312.84,248.92Z"/><path class="cls-4" d="M319.05,241.45c-19.94,24-66.16,18.5-103.22-12.29A129.26,129.26,0,0,1,193.2,205c-8-11.16-13.37-22.85-15.88-34a61.89,61.89,0,0,1-1.61-14c0-10.27,3-19.59,9.11-27,19.94-24,66.15-18.49,103.22,12.3S339,217.45,319.05,241.45Z"/><path class="cls-5" d="M325.25,234c-19.94,24-66.15,18.5-103.22-12.29a129.19,129.19,0,0,1-22.62-24.19c-8-11.16-13.38-22.85-15.89-34a62.47,62.47,0,0,1-1.61-14c0-10.27,3-19.59,9.11-27,19.94-24,66.16-18.49,103.23,12.3S345.19,210,325.25,234Z"/><path class="cls-6" d="M331.46,226.51c-19.94,24-66.16,18.51-103.22-12.29A129,129,0,0,1,205.61,190c-8-11.16-13.37-22.85-15.88-34a62.47,62.47,0,0,1-1.61-14c0-10.27,3-19.59,9.11-27,19.94-24,66.16-18.49,103.22,12.3S351.4,202.51,331.46,226.51Z"/><path class="cls-7" d="M331.46,226.51c-19.94,24-66.16,18.51-103.22-12.29A129,129,0,0,1,205.61,190c-8-11.16-13.37-22.85-15.88-34a62.47,62.47,0,0,1-1.61-14c0-10.27,3-19.59,9.11-27,19.94-24,66.16-18.49,103.22,12.3S351.4,202.51,331.46,226.51Z"/><path class="cls-2" d="M319,216.2c-15.25,18.35-52.1,12.88-82.31-12.21s-42.33-60.31-27.08-78.67,52.1-12.9,82.31,12.19S334.29,197.84,319,216.2Z"/><path class="cls-8" d="M272.49,139.59l-14.11-2.47L239,151.39l10.53,10.74,11.8-9.26,10.82,50.84,14.5,2.55Z"/></g></svg>